<?xml version="1.0" encoding="utf-8" standalone="yes"?>
<!DOCTYPE svg PUBLIC "-//W3C//DTD SVG 1.1//EN" "http://www.w3.org/Graphics/SVG/1.1/DTD/svg11.dtd">
<svg style="fill:none;stroke:none;fill-rule:evenodd;clip-rule:evenodd;stroke-linecap:round;stroke-linejoin:round;stroke-miterlimit:1.5;" version="1.1" xmlns="http://www.w3.org/2000/svg" xmlns:xlink="http://www.w3.org/1999/xlink" width="901" height="842" viewBox="0 0 901 842"><style class="text-font-style fontImports" data-font-family="Roboto">@import url(https://fonts.googleapis.com/css2?family=Roboto:wght@400;700&amp;amp;display=block);</style><g id="items" style="isolation: isolate"><g id="blend" style="mix-blend-mode: normal"><g id="g-root-cp_7_g-7_1lqjfi51i6neo5-fill" data-item-order="-606470" transform="translate(435, 524)"><g id="cp_7_g-7_1lqjfi51i6neo5-fill-merged" stroke="none" fill="#e55753" fill-opacity="1"><g><path d="M10 130 H105C174.036 130 226 79.036 226 10 H130C130 23.807 118.807 34 105 34 H10 V130"></path></g></g></g><g id="g-root-cp_8_g-8_zk2dz11i6ndvy-fill" data-item-order="-606466" transform="translate(195, 548)"><g id="cp_8_g-8_zk2dz11i6ndvy-fill-merged" stroke="none" fill="#de8431" fill-opacity="1"><g><path d="M250 10 H155C85.964 10 34 60.964 34 130 H10L82 209.5L154 130 H130C130 116.193 141.193 106 155 106 H250 V10"></path></g></g></g><g id="g-root-cp_6_g-6_m8lvlp1i6nfgv-fill" data-item-order="-606462" transform="translate(435, 404)"><g id="cp_6_g-6_m8lvlp1i6nfgv-fill-merged" stroke="none" fill="#de58a9" fill-opacity="1"><g><path d="M10 10 H105C174.036 10 226 60.964 226 130 H130C130 116.193 118.807 106 105 106 H10 V10"></path></g></g></g><g id="g-root-cp_5_g-5_ddlcfx1i6ndvk-fill" data-item-order="-606458" transform="translate(219, 380)"><g id="cp_5_g-5_ddlcfx1i6ndvk-fill-merged" stroke="none" fill="#7f64ea" fill-opacity="1"><g><path d="M226 130 H131C61.965 130 10 79.036 10 10 H106C106 23.807 117.193 34 131 34 H226 V130"></path></g></g></g><g id="g-root-cp_4_g-4_24u2l1i6nfgh-fill" data-item-order="-606454" transform="translate(219, 260)"><g id="cp_4_g-4_24u2l1i6nfgh-fill-merged" stroke="none" fill="#1eabda" fill-opacity="1"><g><path d="M226 10 H131C61.965 10 10 60.964 10 130 H106C106 116.193 117.193 106 131 106 H226 V10"></path></g></g></g><g id="g-root-cp_3_g-3_1lseurh1i6ndoi-fill" data-item-order="-606450" transform="translate(435, 236)"><g id="cp_3_g-3_1lseurh1i6ndoi-fill-merged" stroke="none" fill="#92bd39" fill-opacity="1"><g><path d="M10 130 H105C174.036 130 226 79.036 226 10 H130C130 23.807 118.807 34 105 34 H10 V130"></path></g></g></g><g id="g-root-cp_2_g-2_18gyce51i6nf9f-fill" data-item-order="-606446" transform="translate(435, 116)"><g id="cp_2_g-2_18gyce51i6nf9f-fill-merged" stroke="none" fill="#3cc583" fill-opacity="1"><g><path d="M10 10 H105C174.036 10 226 60.964 226 130 H130C130 116.193 118.807 106 105 106 H10 V10"></path></g></g></g><g id="g-root-cp_1_g-1_v64b3x1i6ndok-fill" data-item-order="-606442" transform="translate(219, 116)"><g id="cp_1_g-1_v64b3x1i6ndok-fill-merged" stroke="none" fill="#4e88e7" fill-opacity="1"><g><path d="M226 10 H10 V106 H226 V10"></path></g></g></g><g id="g-root-cp_-1_container_hunsql1i6nf9h-fill" data-item-order="-606417" transform="translate(15, 158)"></g><g id="g-root-cp_-1_container_1_4jtrgd1i6ndom-fill" data-item-order="-606405" transform="translate(15, 290)"></g><g id="g-root-cp_-1_container_2_1q9hb251i6nf2f-fill" data-item-order="-606393" transform="translate(-9, 452)"></g><g id="g-root-cp_-1_container_3_1ltnsxp1i6nfuo-fill" data-item-order="-606381" transform="translate(75, 578)"></g><g id="g-root-cp_-1_container_4_1cyn9rx1i6ndhl-fill" data-item-order="-606369" transform="translate(675, 134)"></g><g id="g-root-cp_-1_container_5_zn6rel1i6nf2i-fill" data-item-order="-606357" transform="translate(675, 290)"></g><g id="g-root-cp_-1_container_6_v7d9a51i6nfur-fill" data-item-order="-606345" transform="translate(675, 452)"></g><g id="g-root-cp_-1_container_7_mccq4d1i6ndho-fill" data-item-order="-606333" transform="translate(675, 566)"></g><g id="g-root-ic_text_93e43h1i6t0xv-fill" data-item-order="0" transform="translate(513, 278)"></g><g id="g-root-tx_metanarr_m7d0l91i6c5c0-fill" data-item-order="0" transform="translate(675, 254)"><g id="tx_metanarr_m7d0l91i6c5c0-fill-merged" stroke="none" fill="#92bd39" fill-opacity="1"><g><text style="font: bold 20px &quot;Roboto&quot;, sans-serif; white-space: pre;" transform="translate(10, 22)" font-weight="bold" font-size="20px" font-family="'Roboto', sans-serif"><tspan x="2" y="12" dominant-baseline="ideographic">Metanarración</tspan></text></g></g></g><g id="g-root-ic_info_hwj7zx1i6ornr-fill" data-item-order="0" transform="translate(297, 278)"></g><g id="g-root-tx_explorac_1hhl8hp1i6aqyx-fill" data-item-order="0" transform="translate(15, 290)"><g id="tx_explorac_1hhl8hp1i6aqyx-fill-merged" stroke="none" fill="#484848" fill-opacity="1"><g><text style="font: 15px &quot;Roboto&quot;, sans-serif; white-space: pre;" transform="translate(100, 46)" font-size="15px" font-family="'Roboto', sans-serif"><tspan x="-57.55" y="-18" dominant-baseline="ideographic">Exploración de la </tspan><tspan x="-83.45" y="0" dominant-baseline="ideographic">conciencia del personaje </tspan><tspan x="-87.22" y="18" dominant-baseline="ideographic">como un mundo caótico y </tspan><tspan x="-43.82" y="36" dominant-baseline="ideographic">fragmentado</tspan></text></g></g></g><g id="g-root-ic_page_1hfpq2l1i6nevi-fill" data-item-order="0" transform="translate(297, 134)"></g><g id="g-root-tx_experime_zqxp311i6aq6a-fill" data-item-order="0" transform="translate(27, 392)"><g id="tx_experime_zqxp311i6aq6a-fill-merged" stroke="none" fill="#7f64ea" fill-opacity="1"><g><text style="font: bold 20px &quot;Roboto&quot;, sans-serif; white-space: pre;" transform="translate(94, 34)" font-weight="bold" font-size="20px" font-family="'Roboto', sans-serif"><tspan x="-78.04" y="0" dominant-baseline="ideographic">Experimentación </tspan><tspan x="-51.01" y="24" dominant-baseline="ideographic">tipográfica</tspan></text></g></g></g><g id="g-root-tx_multiper_1hjgnr11i6apza-fill" data-item-order="0" transform="translate(675, 98)"><g id="tx_multiper_1hjgnr11i6apza-fill-merged" stroke="none" fill="#3cc583" fill-opacity="1"><g><text style="font: bold 20px &quot;Roboto&quot;, sans-serif; white-space: pre;" transform="translate(10, 22)" font-weight="bold" font-size="20px" font-family="'Roboto', sans-serif"><tspan x="2" y="12" dominant-baseline="ideographic">Multiperspectivismo</tspan></text></g></g></g><g id="g-root-ic_comp_qpobwd1i6q8eg-fill" data-item-order="0" transform="translate(297, 422)"></g><g id="g-root-ic_conf_1ur68fx1i6ugp8-fill" data-item-order="0" transform="translate(513, 422)"></g><g id="g-root-tx_estiloba_1um6iwt1i6c54y-fill" data-item-order="0" transform="translate(675, 416)"><g id="tx_estiloba_1um6iwt1i6c54y-fill-merged" stroke="none" fill="#de58a9" fill-opacity="1"><g><text style="font: bold 20px &quot;Roboto&quot;, sans-serif; white-space: pre;" transform="translate(10, 22)" font-weight="bold" font-size="20px" font-family="'Roboto', sans-serif"><tspan x="2" y="12" dominant-baseline="ideographic">Estilo barroco</tspan></text></g></g></g><g id="g-root-tx_resoluci_v48z0d1i6c5xp-fill" data-item-order="0" transform="translate(675, 566)"><g id="tx_resoluci_v48z0d1i6c5xp-fill-merged" stroke="none" fill="#484848" fill-opacity="1"><g><text style="font: 15px &quot;Roboto&quot;, sans-serif; white-space: pre;" transform="translate(100, 58)" font-size="15px" font-family="'Roboto', sans-serif"><tspan x="-75.53" y="-27" dominant-baseline="ideographic">Resolución ambigua e </tspan><tspan x="-83.73" y="-9" dominant-baseline="ideographic">indeterminada que exige </tspan><tspan x="-71.05" y="9" dominant-baseline="ideographic">lectores activos para </tspan><tspan x="-45.78" y="27" dominant-baseline="ideographic">construir una </tspan><tspan x="-48.15" y="45" dominant-baseline="ideographic">interpretación</tspan></text></g></g></g><g id="g-root-ic_star_18egg1p1i6t1qa-fill" data-item-order="0" transform="translate(513, 134)"></g><g id="g-root-tx_diseovis_mfh6pp1i6arr7-fill" data-item-order="0" transform="translate(-9, 452)"><g id="tx_diseovis_mfh6pp1i6arr7-fill-merged" stroke="none" fill="#484848" fill-opacity="1"><g><text style="font: 15px &quot;Roboto&quot;, sans-serif; white-space: pre;" transform="translate(112, 40)" font-size="15px" font-family="'Roboto', sans-serif"><tspan x="-79.15" y="-9" dominant-baseline="ideographic">Diseño visual innovador</tspan><tspan x="-89.42" y="9" dominant-baseline="ideographic">por la supresión de signos </tspan><tspan x="-94.4" y="27" dominant-baseline="ideographic">ortográficos convencionales</tspan></text></g></g></g><g id="g-root-tx_lenguaje_1haq0jh1i6c6pv-fill" data-item-order="0" transform="translate(675, 452)"><g id="tx_lenguaje_1haq0jh1i6c6pv-fill-merged" stroke="none" fill="#484848" fill-opacity="1"><g><text style="font: 15px &quot;Roboto&quot;, sans-serif; white-space: pre;" transform="translate(88, 28)" font-size="15px" font-family="'Roboto', sans-serif"><tspan x="-70.75" y="0" dominant-baseline="ideographic">Lenguaje complejo e </tspan><tspan x="-24.58" y="18" dominant-baseline="ideographic">irónico</tspan></text></g></g></g><g id="g-root-tx_narracin_144vry51i6aqdq-fill" data-item-order="0" transform="translate(63, 98)"><g id="tx_narracin_144vry51i6aqdq-fill-merged" stroke="none" fill="#4e88e7" fill-opacity="1"><g><text style="font: bold 20px &quot;Roboto&quot;, sans-serif; white-space: pre;" transform="translate(76, 34)" font-weight="bold" font-size="20px" font-family="'Roboto', sans-serif"><tspan x="-44.03" y="0" dominant-baseline="ideographic">Narración </tspan><tspan x="-58.2" y="24" dominant-baseline="ideographic">fragmentaria</tspan></text></g></g></g><g id="g-root-tx_intertex_94n5fh1i6aq6c-fill" data-item-order="0" transform="translate(39, 542)"><g id="tx_intertex_94n5fh1i6aq6c-fill-merged" stroke="none" fill="#de8431" fill-opacity="1"><g><text style="font: bold 20px &quot;Roboto&quot;, sans-serif; white-space: pre;" transform="translate(88, 22)" font-weight="bold" font-size="20px" font-family="'Roboto', sans-serif"><tspan x="-71.35" y="12" dominant-baseline="ideographic">Intertextualidad</tspan></text></g></g></g><g id="g-root-tx_evolucin_90w7r11i6nf2l-fill" data-item-order="0" transform="translate(189, 38)"><g id="tx_evolucin_90w7r11i6nf2l-fill-merged" stroke="none" fill="#fd6a65" fill-opacity="1"><g><text style="font: bold 25px &quot;Roboto&quot;, sans-serif; white-space: pre;" transform="translate(256, 28)" font-weight="bold" font-size="25px" font-family="'Roboto', sans-serif"><tspan x="-241.64" y="15" dominant-baseline="ideographic">La novela experimental de los años 60 y 70</tspan></text></g></g></g><g id="g-root-tx_finalesa_18f30al1i6c7ik-fill" data-item-order="0" transform="translate(675, 530)"><g id="tx_finalesa_18f30al1i6c7ik-fill-merged" stroke="none" fill="#e55753" fill-opacity="1"><g><text style="font: bold 20px &quot;Roboto&quot;, sans-serif; white-space: pre;" transform="translate(88, 22)" font-weight="bold" font-size="20px" font-family="'Roboto', sans-serif"><tspan x="-71.72" y="12" dominant-baseline="ideographic">Finales abiertos</tspan></text></g></g></g><g id="g-root-tx_monlogoi_1usf9rx1i6asjs-fill" data-item-order="0" transform="translate(27, 254)"><g id="tx_monlogoi_1usf9rx1i6asjs-fill-merged" stroke="none" fill="#1eabda" fill-opacity="1"><g><text style="font: bold 20px &quot;Roboto&quot;, sans-serif; white-space: pre;" transform="translate(94, 22)" font-weight="bold" font-size="20px" font-family="'Roboto', sans-serif"><tspan x="-80.43" y="12" dominant-baseline="ideographic">Monólogo interior</tspan></text></g></g></g><g id="g-root-ic_art_zjfwvx1i6rlzd-fill" data-item-order="0" transform="translate(297, 566)"></g><g id="g-root-ic_circ_144vosd1i6vu31-fill" data-item-order="0" transform="translate(513, 566)"></g><g id="g-root-tx_mltiples_14805dp1i6ark7-fill" data-item-order="0" transform="translate(675, 134)"><g id="tx_mltiples_14805dp1i6ark7-fill-merged" stroke="none" fill="#484848" fill-opacity="1"><g><text style="font: 15px &quot;Roboto&quot;, sans-serif; white-space: pre;" transform="translate(100, 58)" font-size="15px" font-family="'Roboto', sans-serif"><tspan x="-85.19" y="-27" dominant-baseline="ideographic">Múltiples puntos de vista </tspan><tspan x="-84.78" y="-9" dominant-baseline="ideographic">de diferentes narradores, </tspan><tspan x="-46.99" y="9" dominant-baseline="ideographic">que provocan </tspan><tspan x="-85.94" y="27" dominant-baseline="ideographic">incertidumbre y subrayan </tspan><tspan x="-46.34" y="45" dominant-baseline="ideographic">el relativismo</tspan></text></g></g></g><g id="g-root-tx_referenc_1uuap191i6ark5-fill" data-item-order="0" transform="translate(75, 578)"><g id="tx_referenc_1uuap191i6ark5-fill-merged" stroke="none" fill="#484848" fill-opacity="1"><g><text style="font: 20px &quot;Roboto&quot;, sans-serif; white-space: pre;" transform="translate(70, 46)" font-size="20px" font-family="'Roboto', sans-serif"><tspan x="-54.99" y="-12" dominant-baseline="ideographic">Referencias </tspan><tspan x="-53.19" y="12" dominant-baseline="ideographic">culturales y </tspan><tspan x="-40.98" y="36" dominant-baseline="ideographic">literarias</tspan></text></g></g></g><g id="g-root-tx_estructu_mdlrgd1i6asqv-fill" data-item-order="0" transform="translate(15, 158)"><g id="tx_estructu_mdlrgd1i6asqv-fill-merged" stroke="none" fill="#484848" fill-opacity="1"><g><text style="font: 15px &quot;Roboto&quot;, sans-serif; white-space: pre;" transform="translate(100, 46)" font-size="15px" font-family="'Roboto', sans-serif"><tspan x="-76.82" y="-18" dominant-baseline="ideographic">Estructura narrativa no </tspan><tspan x="-86.74" y="0" dominant-baseline="ideographic">lineal como reflejo de una </tspan><tspan x="-65.93" y="18" dominant-baseline="ideographic">realidad compleja y </tspan><tspan x="-40.18" y="36" dominant-baseline="ideographic">discontinua</tspan></text></g></g></g><g id="g-root-tx_reflexin_dbq0cd1i6c64p-fill" data-item-order="0" transform="translate(675, 290)"><g id="tx_reflexin_dbq0cd1i6c64p-fill-merged" stroke="none" fill="#484848" fill-opacity="1"><g><text style="font: 15px &quot;Roboto&quot;, sans-serif; white-space: pre;" transform="translate(100, 46)" font-size="15px" font-family="'Roboto', sans-serif"><tspan x="-87.99" y="-18" dominant-baseline="ideographic">Reflexión sobre el proceso </tspan><tspan x="-87.94" y="0" dominant-baseline="ideographic">de escritura para revelar la </tspan><tspan x="-81.49" y="18" dominant-baseline="ideographic">naturaleza artificial de la </tspan><tspan x="-31.43" y="36" dominant-baseline="ideographic">narración</tspan></text></g></g></g><g id="g-root-cp_7_g-7_1lqjfi51i6neo5-stroke" data-item-order="-606470" transform="translate(435, 524)"><g id="cp_7_g-7_1lqjfi51i6neo5-stroke" fill="none" stroke-linecap="round" stroke-linejoin="round" stroke-miterlimit="4" stroke="#ffffff" stroke-width="2" stroke-opacity="1"><g><path d="M 10 130L 105 130C 174.0356 130 226.0001 79.0356 226.0001 10L 130 10C 130 23.8071 118.8071 33.9999 105 34L 10 34L 10 130Z"></path></g></g></g><g id="g-root-cp_8_g-8_zk2dz11i6ndvy-stroke" data-item-order="-606466" transform="translate(195, 548)"><g id="cp_8_g-8_zk2dz11i6ndvy-stroke" fill="none" stroke-linecap="round" stroke-linejoin="round" stroke-miterlimit="4" stroke="#ffffff" stroke-width="2" stroke-opacity="1"><g><path d="M 250 10L 155 10C 85.9644 10 33.9999 60.9644 33.9999 130L 10 130L 82 209.5L 154 130L 130 130C 130 116.1929 141.1929 106.0001 155 106L 250 106L 250 10Z"></path></g></g></g><g id="g-root-cp_6_g-6_m8lvlp1i6nfgv-stroke" data-item-order="-606462" transform="translate(435, 404)"><g id="cp_6_g-6_m8lvlp1i6nfgv-stroke" fill="none" stroke-linecap="round" stroke-linejoin="round" stroke-miterlimit="4" stroke="#ffffff" stroke-width="2" stroke-opacity="1"><g><path d="M 10 10L 105 10C 174.0356 10 226.0001 60.9644 226.0001 130L 130 130C 130 116.1929 118.8071 106.0001 105 106L 10 106L 10 10Z"></path></g></g></g><g id="g-root-cp_5_g-5_ddlcfx1i6ndvk-stroke" data-item-order="-606458" transform="translate(219, 380)"><g id="cp_5_g-5_ddlcfx1i6ndvk-stroke" fill="none" stroke-linecap="round" stroke-linejoin="round" stroke-miterlimit="4" stroke="#ffffff" stroke-width="2" stroke-opacity="1"><g><path d="M 226.0001 130L 131.0001 130C 61.9645 130 10 79.0356 10 10L 106.0001 10C 106.0001 23.8071 117.1931 33.9999 131.0001 34L 226.0001 34L 226.0001 130Z"></path></g></g></g><g id="g-root-cp_4_g-4_24u2l1i6nfgh-stroke" data-item-order="-606454" transform="translate(219, 260)"><g id="cp_4_g-4_24u2l1i6nfgh-stroke" fill="none" stroke-linecap="round" stroke-linejoin="round" stroke-miterlimit="4" stroke="#ffffff" stroke-width="2" stroke-opacity="1"><g><path d="M 226.0001 10L 131.0001 10C 61.9645 10 10 60.9644 10 130L 106.0001 130C 106.0001 116.1929 117.1931 106.0001 131.0001 106L 226.0001 106L 226.0001 10Z"></path></g></g></g><g id="g-root-cp_3_g-3_1lseurh1i6ndoi-stroke" data-item-order="-606450" transform="translate(435, 236)"><g id="cp_3_g-3_1lseurh1i6ndoi-stroke" fill="none" stroke-linecap="round" stroke-linejoin="round" stroke-miterlimit="4" stroke="#ffffff" stroke-width="2" stroke-opacity="1"><g><path d="M 10 130L 105 130C 174.0356 130 226.0001 79.0356 226.0001 10L 130 10C 130 23.8071 118.8071 33.9999 105 34L 10 34L 10 130Z"></path></g></g></g><g id="g-root-cp_2_g-2_18gyce51i6nf9f-stroke" data-item-order="-606446" transform="translate(435, 116)"><g id="cp_2_g-2_18gyce51i6nf9f-stroke" fill="none" stroke-linecap="round" stroke-linejoin="round" stroke-miterlimit="4" stroke="#ffffff" stroke-width="2" stroke-opacity="1"><g><path d="M 10 10L 105 10C 174.0356 10 226.0001 60.9644 226.0001 130L 130 130C 130 116.1929 118.8071 106.0001 105 106L 10 106L 10 10Z"></path></g></g></g><g id="g-root-cp_1_g-1_v64b3x1i6ndok-stroke" data-item-order="-606442" transform="translate(219, 116)"><g id="cp_1_g-1_v64b3x1i6ndok-stroke" fill="none" stroke-linecap="round" stroke-linejoin="round" stroke-miterlimit="4" stroke="#ffffff" stroke-width="2" stroke-opacity="1"><g><path d="M 226 10L 10 10L 10 106L 226 106L 226 10Z"></path></g></g></g><g id="g-root-cp_-1_container_hunsql1i6nf9h-stroke" data-item-order="-606417" transform="translate(15, 158)"></g><g id="g-root-cp_-1_container_1_4jtrgd1i6ndom-stroke" data-item-order="-606405" transform="translate(15, 290)"></g><g id="g-root-cp_-1_container_2_1q9hb251i6nf2f-stroke" data-item-order="-606393" transform="translate(-9, 452)"></g><g id="g-root-cp_-1_container_3_1ltnsxp1i6nfuo-stroke" data-item-order="-606381" transform="translate(75, 578)"></g><g id="g-root-cp_-1_container_4_1cyn9rx1i6ndhl-stroke" data-item-order="-606369" transform="translate(675, 134)"></g><g id="g-root-cp_-1_container_5_zn6rel1i6nf2i-stroke" data-item-order="-606357" transform="translate(675, 290)"></g><g id="g-root-cp_-1_container_6_v7d9a51i6nfur-stroke" data-item-order="-606345" transform="translate(675, 452)"></g><g id="g-root-cp_-1_container_7_mccq4d1i6ndho-stroke" data-item-order="-606333" transform="translate(675, 566)"></g><g id="g-root-ic_text_93e43h1i6t0xv-stroke" data-item-order="0" transform="translate(513, 278)"><g id="ic_text_93e43h1i6t0xv-stroke" fill="none" stroke-linecap="round" stroke-linejoin="round" stroke-miterlimit="4" stroke="#ffffff" stroke-width="2" stroke-opacity="1"><g><path d="M 33.549999 53.950001L 28.75 58.75L 28.75 48.75L 13.75 48.75C 12.369288 48.75 11.25 47.630714 11.25 46.25L 11.25 13.75C 11.25 12.369288 12.369288 11.25 13.75 11.25L 58.75 11.25C 60.130711 11.25 61.25 12.369288 61.25 13.75L 61.25 31.25M 38.75 56.25C 38.75 57.630711 39.869286 58.75 41.25 58.75L 51.25 58.75L 61.25 68.75L 61.25 58.75L 66.25 58.75C 67.630707 58.75 68.75 57.630711 68.75 56.25L 68.75 38.75C 68.75 37.369286 67.630707 36.25 66.25 36.25L 41.25 36.25C 39.869286 36.25 38.75 37.369286 38.75 38.75ZM 21.25 20L 51.25 20M 21.25 27.5L 51.25 27.5M 46.25 43.75L 61.25 43.75M 46.25 51.25L 61.25 51.25M 21.25 35L 32.5 35"></path></g></g></g><g id="g-root-tx_metanarr_m7d0l91i6c5c0-stroke" data-item-order="0" transform="translate(675, 254)"></g><g id="g-root-ic_info_hwj7zx1i6ornr-stroke" data-item-order="0" transform="translate(297, 278)"><g id="ic_info_hwj7zx1i6ornr-stroke" fill="none" stroke-linecap="round" stroke-linejoin="round" stroke-miterlimit="4" stroke="#ffffff" stroke-width="2" stroke-opacity="1"><g><path d="M 32.5 51.25L 11.25 51.25C 12.3075 45.535 12.1325 42.302498 15.2725 40.955002L 26.25 36.25L 26.25 31.25C 26.25 31.25 23.887499 30.377501 23.887499 25C 21.434999 25 21.434999 20 23.887499 20C 23.887499 19.279999 19.7775 13.9275 24.942501 15C 26.17 10 38.27 10 39.497498 15C 39.658001 15.864625 39.643501 16.752676 39.454502 17.611549C 39.265499 18.470425 38.90625 19.282625 38.397499 20C 40.775002 20 40.125 25 38.415001 25C 38.415001 30.377501 36.25 31.25 36.25 31.25L 36.25 36.25L 40 37.857498M 53.75 68.75C 62.034248 68.75 68.75 62.034248 68.75 53.75C 68.75 45.465752 62.034248 38.75 53.75 38.75C 45.465752 38.75 38.75 45.465752 38.75 53.75C 38.75 62.034248 45.465752 68.75 53.75 68.75ZM 53.75 61.25L 53.75 52.5C 53.75 52.168499 53.618248 51.850502 53.383999 51.616001C 53.149498 51.381752 52.831501 51.25 52.5 51.25L 50 51.25M 50 61.25L 57.5 61.25M 51.875 46.25C 51.529751 46.25 51.25 45.970249 51.25 45.625C 51.25 45.279751 51.529751 45 51.875 45M 51.875 46.25C 52.220249 46.25 52.5 45.970249 52.5 45.625C 52.5 45.279751 52.220249 45 51.875 45"></path></g></g></g><g id="g-root-tx_explorac_1hhl8hp1i6aqyx-stroke" data-item-order="0" transform="translate(15, 290)"></g><g id="g-root-ic_page_1hfpq2l1i6nevi-stroke" data-item-order="0" transform="translate(297, 134)"><g id="ic_page_1hfpq2l1i6nevi-stroke" fill="none" stroke-linecap="round" stroke-linejoin="round" stroke-miterlimit="4" stroke="#ffffff" stroke-width="2" stroke-opacity="1"><g><path d="M 55 20.735001C 58.715378 20.142328 62.470245 19.831442 66.232498 19.805C 66.567047 19.800316 66.889503 19.929941 67.127716 20.164871C 67.365936 20.399801 67.500031 20.720425 67.5 21.055L 67.5 60.470001C 67.500069 61.15358 66.951012 61.71043 66.267502 61.720001C 46 61.977501 40 68.547501 40 68.547501L 40 26.6325C 40 26.6325 34 20.07 13.7675 19.805C 13.432958 19.800316 13.110501 19.929941 12.872282 20.164871C 12.634063 20.399801 12.499968 20.720425 12.5 21.055L 12.5 60.470001C 12.499933 61.15358 13.048988 61.71043 13.7325 61.720001C 34 61.977501 40 68.547501 40 68.547501M 40 67.297501C 41.021648 59.475327 47.177826 53.319149 55 52.297501L 55 12.7025C 54.999977 12.2989 54.805084 11.920143 54.476696 11.685509C 54.1483 11.450873 53.72683 11.389234 53.344997 11.52C 40.8675 15.78 40 24.872499 40 26.047501"></path></g></g></g><g id="g-root-tx_experime_zqxp311i6aq6a-stroke" data-item-order="0" transform="translate(27, 392)"></g><g id="g-root-tx_multiper_1hjgnr11i6apza-stroke" data-item-order="0" transform="translate(675, 98)"></g><g id="g-root-ic_comp_qpobwd1i6q8eg-stroke" data-item-order="0" transform="translate(297, 422)"><g id="ic_comp_qpobwd1i6q8eg-stroke" fill="none" stroke-linecap="round" stroke-linejoin="round" stroke-miterlimit="4" stroke="#ffffff" stroke-width="2" stroke-opacity="1"><g><path d="M 13.75 38.75L 13.75 23.75C 13.75 20.988577 15.988577 18.75 18.75 18.75C 21.511423 18.75 23.75 20.988577 23.75 23.75L 23.75 38.75M 23.75 50.300003L 23.75 56.25C 23.690804 57.89188 23.308516 59.505989 22.625 61L 19.299999 67.625C 19 68.25 18.5 68.25 18.200001 67.625L 15 61C 14.310005 59.481758 13.927644 57.841854 13.875 56.175003L 13.875 50.300003M 23.75 26.174999L 13.75 26.174999M 23.4 58.75L 14.1 58.75M 47.724998 26.25L 65.925003 57.724998C 66.642296 58.892941 66.285454 60.420654 65.125 61.149998L 63.625 62.049999C 62.450577 62.762753 60.921074 62.394333 60.200001 61.224998L 40.200001 26.224998M 64.475006 61.550003L 68.75 68.75M 32.724998 18.75C 32.724998 14.607864 36.082867 11.25 40.224998 11.25C 44.367138 11.25 47.724998 14.607864 47.724998 18.75L 47.724998 26.25L 32.724998 26.25ZM 32.724998 26.25L 28.049999 41.400002C 27.472652 42.768906 26.159187 43.683468 24.674999 43.75L 12.5 43.75C 11.809644 43.75 11.25 44.309647 11.25 45L 11.25 49.049999C 11.25 49.740356 11.809644 50.300003 12.5 50.300003L 29.6 50.300003C 31.076317 50.232002 32.38541 49.330181 32.974998 47.974998L 40.224998 26.25"></path></g></g></g><g id="g-root-ic_conf_1ur68fx1i6ugp8-stroke" data-item-order="0" transform="translate(513, 422)"><g id="ic_conf_1ur68fx1i6ugp8-stroke" fill="none" stroke-linecap="round" stroke-linejoin="round" stroke-miterlimit="4" stroke="#ffffff" stroke-width="2" stroke-opacity="1"><g><path d="M 42.235001 28.18C 42.235001 26.061989 43.951988 24.344999 46.07 24.344999C 48.188011 24.344999 49.904999 26.061989 49.904999 28.18C 49.904999 30.298012 48.188011 32.014999 46.07 32.014999L 46.07 34.630001M 45.75 39.68L 45.75 39.68M 45.75 39.68C 45.219486 39.678619 44.788425 40.107811 44.787502 40.638329C 44.786583 41.168846 45.216148 41.599537 45.746666 41.599998C 46.277184 41.60046 46.7075 41.170521 46.7075 40.639999C 46.70816 40.38562 46.607574 40.141434 46.427937 39.961327C 46.248299 39.781219 46.004375 39.679996 45.75 39.679996M 15.0825 11.25C 12.965869 11.25 11.25 12.965869 11.25 15.0825L 11.25 53.417503C 11.25 55.534134 12.965869 57.25 15.0825 57.25L 22.75 57.25L 22.75 68.75L 38.0825 57.25L 64.917496 57.25C 67.034134 57.25 68.75 55.534134 68.75 53.417503L 68.75 15.0825C 68.75 12.965869 67.034134 11.25 64.917503 11.25ZM 58.207504 39.68L 58.207504 39.68M 58.207504 39.68C 57.677307 39.68 57.247501 40.10981 57.247501 40.639999C 57.247501 41.170193 57.677307 41.600002 58.207504 41.600002C 58.737698 41.600002 59.1675 41.170193 59.167503 40.639999C 59.167503 40.10981 58.737698 39.68 58.207504 39.68M 24.6675 25.945L 22.110001 41.2775M 32.3325 25.945L 29.7775 41.2775M 20.8325 29.7775L 34.889999 29.7775M 19.555 37.445L 33.610001 37.445M 58.527496 24.3475L 58.527496 33.2925"></path></g></g></g><g id="g-root-tx_estiloba_1um6iwt1i6c54y-stroke" data-item-order="0" transform="translate(675, 416)"></g><g id="g-root-tx_resoluci_v48z0d1i6c5xp-stroke" data-item-order="0" transform="translate(675, 566)"></g><g id="g-root-ic_star_18egg1p1i6t1qa-stroke" data-item-order="0" transform="translate(513, 134)"><g id="ic_star_18egg1p1i6t1qa-stroke" fill="none" stroke-linecap="round" stroke-linejoin="round" stroke-miterlimit="4" stroke="#ffffff" stroke-width="2" stroke-opacity="1"><g><path d="M 10 10M 57.722504 44.645L 60.927502 51.567501L 67.177498 51.567501C 67.826012 51.541691 68.420464 51.927208 68.661407 52.529861C 68.902359 53.132507 68.737549 53.821587 68.249992 54.249996L 62.835003 59.587498L 65.834999 66.490005C 66.106949 67.137657 65.93483 67.886642 65.407425 68.350594C 64.88002 68.81456 64.115204 68.889793 63.5075 68.537498L 56.2575 64.452499L 49.0075 68.537506C 48.399796 68.889793 47.634979 68.81456 47.107574 68.350594C 46.58017 67.886642 46.408047 67.137657 46.68 66.490005L 49.68 59.587498L 44.25 54.25C 43.768585 53.820362 43.607849 53.135216 43.847969 52.536312C 44.088093 51.937408 44.677624 51.553062 45.322498 51.574997L 51.560001 51.574997L 54.772499 44.6525C 55.053478 44.096848 55.622551 43.745926 56.245197 43.744343C 56.867851 43.74276 57.438698 44.090786 57.722496 44.645ZM 11.25 43.75C 11.274306 41.429218 11.754224 39.135803 12.6625 37C 13.6625 35 17.82 33.625 23.045 31.689999C 24.4575 31.1675 24.225 27.48 23.6 26.790001C 21.58569 24.607292 20.598839 21.668566 20.887501 18.7125C 20.706507 16.830324 21.315922 14.957593 22.569931 13.542389C 23.82394 12.127184 25.609722 11.296829 27.499998 11.25C 29.390276 11.296829 31.17606 12.127184 32.430069 13.542389C 33.684078 14.957593 34.293491 16.830324 34.112499 18.7125C 34.401894 21.669405 33.414989 24.609188 31.399998 26.7925C 30.775002 27.4825 30.5425 31.170002 31.954998 31.692501C 37.18 33.627502 41.34 35.009998 42.337502 37.002499C 43.245777 39.138306 43.725693 41.431717 43.75 43.752502ZM 37.279999 11.8425C 38.132549 11.448827 39.060951 11.246592 39.999996 11.25C 41.890274 11.296829 43.67606 12.127184 44.930069 13.542389C 46.184078 14.957593 46.793491 16.830324 46.612499 18.7125C 46.901894 21.669405 45.914989 24.609188 43.899998 26.7925C 43.275002 27.4825 43.0425 31.170002 44.454998 31.692501C 49.005001 33.377499 52.75 34.645 54.297501 36.2575"></path></g></g></g><g id="g-root-tx_diseovis_mfh6pp1i6arr7-stroke" data-item-order="0" transform="translate(-9, 452)"></g><g id="g-root-tx_lenguaje_1haq0jh1i6c6pv-stroke" data-item-order="0" transform="translate(675, 452)"></g><g id="g-root-tx_narracin_144vry51i6aqdq-stroke" data-item-order="0" transform="translate(63, 98)"></g><g id="g-root-tx_intertex_94n5fh1i6aq6c-stroke" data-item-order="0" transform="translate(39, 542)"></g><g id="g-root-tx_evolucin_90w7r11i6nf2l-stroke" data-item-order="0" transform="translate(189, 38)"></g><g id="g-root-tx_finalesa_18f30al1i6c7ik-stroke" data-item-order="0" transform="translate(675, 530)"></g><g id="g-root-tx_monlogoi_1usf9rx1i6asjs-stroke" data-item-order="0" transform="translate(27, 254)"></g><g id="g-root-ic_art_zjfwvx1i6rlzd-stroke" data-item-order="0" transform="translate(297, 566)"><g id="ic_art_zjfwvx1i6rlzd-stroke" fill="none" stroke-linecap="round" stroke-linejoin="round" stroke-miterlimit="4" stroke="#ffffff" stroke-width="2" stroke-opacity="1"><g><path d="M 61.25 58.75L 61.25 13.75C 61.25 12.369288 60.130711 11.25 58.75 11.25L 23.75 11.25C 20.988577 11.25 18.75 13.488576 18.75 16.25L 18.75 63.75M 61.25 58.75L 23.75 58.75C 20.988577 58.75 18.75 60.988575 18.75 63.75C 18.75 66.511429 20.988577 68.75 23.75 68.75L 61.25 68.75M 26.25 63.75L 61.25 63.75M 48.399998 26.25C 45.784824 23.806246 42.329071 22.463337 38.75 22.5C 31.625 22.5 25.875 27.5 25.875 33.349998C 26.120136 37.9781 29.271446 41.942326 33.724998 43.224998C 35.574997 43.875 37.075001 43.349998 38.125 40.950001C 38.537296 39.758629 39.554459 38.878139 40.792618 38.640827C 42.030777 38.403515 43.301414 38.845505 44.125 39.799999M 50.825001 35.325001L 44.100002 48.75M 49.400002 31C 48.770248 32.038895 48.777752 33.343536 49.419411 34.375118C 50.061069 35.4067 51.227997 35.990162 52.438259 35.884544C 53.648521 35.778919 54.696735 35.002136 55.149998 33.875C 56.90567 31.169319 56.552689 27.608353 54.299999 25.299999C 54.20649 25.226171 54.080086 25.209425 53.970581 25.256355C 53.861076 25.303286 53.786026 25.406372 53.774994 25.525C 53.775002 28.4 51.174999 27.5 49.400002 31ZM 32.5 35C 32.845177 35 33.125 35.279823 33.125 35.625M 31.875 35.625C 31.875 35.279823 32.154823 35 32.5 35M 32.5 36.25C 32.154823 36.25 31.875 35.970177 31.875 35.625M 33.125 35.625C 33.125 35.970177 32.845177 36.25 32.5 36.25M 34.375 28.75C 34.720177 28.75 35 29.029823 35 29.375M 33.75 29.375C 33.75 29.029823 34.029823 28.75 34.375 28.75M 34.375 30C 34.029823 30 33.75 29.720177 33.75 29.375M 35 29.375C 35 29.720177 34.720177 30 34.375 30M 40.625 27.5C 40.970177 27.5 41.25 27.779823 41.25 28.125M 40 28.125C 40 27.779823 40.279823 27.5 40.625 27.5M 40.625 28.75C 40.279823 28.75 40 28.470177 40 28.125M 41.25 28.125C 41.25 28.470177 40.970177 28.75 40.625 28.75"></path></g></g></g><g id="g-root-ic_circ_144vosd1i6vu31-stroke" data-item-order="0" transform="translate(513, 566)"><g id="ic_circ_144vosd1i6vu31-stroke" fill="none" stroke-linecap="round" stroke-linejoin="round" stroke-miterlimit="4" stroke="#ffffff" stroke-width="2" stroke-opacity="1"><g><path d="M 30.625 34.355C 30.617762 29.436548 34.410873 25.347782 39.316048 24.98653C 44.221222 24.625278 48.572411 28.114243 49.285801 32.98069C 49.999191 37.847134 46.832474 42.438175 42.029999 43.5C 40.862167 43.730404 40.015312 44.747257 40 45.9375L 40 48.720001M 40 54.980003C 40.345177 54.980003 40.625 55.259823 40.625 55.605003C 40.625 55.95018 40.345177 56.230003 40 56.230003C 39.654823 56.230003 39.375 55.95018 39.375 55.605003C 39.375 55.259823 39.654823 54.980003 40 54.980003M 11.25 40.002502C 11.250001 55.880684 24.121815 68.752502 40 68.752502C 55.878185 68.752502 68.75 55.880684 68.75 40.002502C 68.75 24.124313 55.878185 11.252501 40 11.252501C 24.121815 11.252501 11.250001 24.124313 11.250001 40.002502Z"></path></g></g></g><g id="g-root-tx_mltiples_14805dp1i6ark7-stroke" data-item-order="0" transform="translate(675, 134)"></g><g id="g-root-tx_referenc_1uuap191i6ark5-stroke" data-item-order="0" transform="translate(75, 578)"></g><g id="g-root-tx_estructu_mdlrgd1i6asqv-stroke" data-item-order="0" transform="translate(15, 158)"></g><g id="g-root-tx_reflexin_dbq0cd1i6c64p-stroke" data-item-order="0" transform="translate(675, 290)"></g></g></g><path id="wzpo4t91kellhl" d="M65.283 12.757a.35.35 0 0 0 .584.157l5.203-5.141-6.183 3.523.396 1.461zm-2.216-11.7a.35.35 0 0 0-.522.305v3.111l3.276-1.868-2.754-1.548zm3.728 2.105l-4.25 2.421v2.445l6.391-3.644-2.141-1.222zm4.708 3.303a.35.35 0 0 0 0-.609l-1.592-.9-7.365 4.199v1.782a.35.35 0 0 0 .523.305l8.435-4.777z M44.542 2.513c0-.433.355-.783.792-.783s.792.35.792.783-.355.783-.792.783-.792-.35-.792-.783zm59.171 0c0-.433.355-.783.792-.783s.792.35.792.783-.355.783-.792.783-.792-.35-.792-.783zm-85.951 7.636h-1.27v-.487c-.276.201-.864.609-1.881.609-1.202 0-2.274-.794-2.137-2.078.118-1.106 1.153-1.584 1.848-1.727l2.17-.345c0-.539-.29-.956-1.064-1.006s-1.21.305-1.571 1.017l-1.124-.605c1.218-2.631 5.029-1.764 5.029.414v4.207zm-1.27-2.86c.006.396-.062 1.112-.819 1.59-.587.37-1.841.299-1.903-.395-.049-.555.461-.791.906-.898l1.816-.297zm72.662 2.86h-1.27v-.487c-.276.201-.864.609-1.881.609-1.202 0-2.274-.794-2.137-2.078.118-1.106 1.153-1.584 1.848-1.727l2.17-.345c0-.539-.29-.956-1.064-1.006s-1.21.305-1.571 1.017l-1.124-.605c1.218-2.631 5.029-1.764 5.029.414v4.207zm-1.27-2.86c.006.396-.062 1.112-.82 1.59-.587.37-1.841.299-1.903-.395-.049-.555.461-.791.906-.898l1.816-.297zM99.096 10.149H97.85v-8.45h1.246v4.895l2.68-2.559h1.738l-2.633 2.535 2.715 3.578h-1.556l-2.077-2.707-.867.844v1.863zm6.053-6.114h-1.255v6.113h1.255V4.035zm-59.2 0h-1.255v6.113h1.255V4.035zm5.584 6.113V1.697h1.255v2.695c.361-.346 1-.485 1.47-.485 1.452 0 2.477 1.082 2.457 2.448v3.792h-1.27v-3.68c0-.408-.214-1.339-1.315-1.339-.968 0-1.342.756-1.342 1.339v3.681h-1.255zm-4.76-4.894V4.039h.621a.45.45 0 0 0 .45-.45v-.855h1.251v1.305h1.309v1.215h-1.309v3.109c0 .293.105.664.648.664.365 0 .531-.035.736-.07v1.137s-.361.113-.857.113c-1.398 0-1.777-1.051-1.777-1.788V5.254h-1.071zM36.528 4.039h-1.394l2.191 6.106h1.125l1.234-3.918 1.238 3.918h1.129l2.188-6.106h-1.383l-1.359 3.93-1.256-3.93h-1.124l-1.242 3.957-1.348-3.957zM26.212 7.141c-.02 1.566 1.187 3.129 3.223 3.129 1.566 0 2.383-.918 2.734-1.719L31.172 8c-.315.399-.801 1.094-1.738 1.094-1.145 0-1.825-.781-1.891-1.52h4.625c.074-.284.148-.995-.03-1.559-.336-1.064-1.221-2.102-2.839-2.102s-3.088 1.152-3.088 3.227zm1.363-.75h3.348c-.055-.43-.566-1.301-1.623-1.301a1.79 1.79 0 0 0-1.725 1.301zm-8.758.75c.038 1.758 1.277 3.133 3.145 3.133 1.074 0 1.723-.477 1.961-.672v.547h1.242V1.703h-1.258v2.888c-.414-.36-1.062-.68-1.93-.68-1.91 0-3.198 1.473-3.16 3.23zm1.309-.08c0 1.119.723 1.978 1.836 1.978a1.88 1.88 0 0 0 1.94-1.904c0-1.371-1.011-1.99-1.972-1.99s-1.805.798-1.805 1.916zm76.683-.028C96.771 5.275 95.532 3.9 93.664 3.9c-1.074 0-1.723.477-1.961.672v-.547h-1.242v8.22h1.258V9.583c.414.36 1.063.68 1.93.68 1.91 0 3.198-1.473 3.16-3.23zm-1.309.08c0-1.119-.723-1.978-1.836-1.978a1.88 1.88 0 0 0-1.94 1.904c0 1.371 1.011 1.99 1.972 1.99S95.5 8.231 95.5 7.113zM106.441 10.173V4.036h1.254v.382c.361-.346 1-.485 1.47-.485 1.452 0 2.477 1.082 2.457 2.448v3.792h-1.27V6.492c0-.408-.214-1.339-1.315-1.339-.969 0-1.342.756-1.342 1.339v3.681h-1.254zm-30.383-.021V1.824h1.084l4.215 5.777V1.824h1.32v8.328h-1.094l-4.207-5.796v5.796h-1.319zM5.24 10.149H4V2.377h1.014l2.664 3.597 2.654-3.592h1.03v7.766h-1.256V4.762L7.678 8.068 5.24 4.742v5.407z" transform="translate(765, 808)" fill="#80808088" stroke="none"></path></svg>