<?xml version="1.0" encoding="utf-8" standalone="yes"?>
<!DOCTYPE svg PUBLIC "-//W3C//DTD SVG 1.1//EN" "http://www.w3.org/Graphics/SVG/1.1/DTD/svg11.dtd">
<svg style="fill:none;stroke:none;fill-rule:evenodd;clip-rule:evenodd;stroke-linecap:round;stroke-linejoin:round;stroke-miterlimit:1.5;" version="1.1" xmlns="http://www.w3.org/2000/svg" xmlns:xlink="http://www.w3.org/1999/xlink" width="972" height="628" viewBox="0 0 972 628"><style class="text-font-style fontImports" data-font-family="Roboto">@import url(https://fonts.googleapis.com/css2?family=Roboto:wght@400;700&amp;amp;display=block);</style><g id="items" style="isolation: isolate"><g id="blend" style="mix-blend-mode: normal"><g id="g-root-cp_5_g-5_mcbrfz15zdpfp-fill" data-item-order="-423350" transform="translate(253, 392)"><g id="cp_5_g-5_mcbrfz15zdpfp-fill-merged" stroke="none" fill="#1eabda" fill-opacity="1"><g><path d="M226 34 V10L305.5 82L226 154 V130 H131C61.965 130 10 79.036 10 10 H106C106 23.807 117.193 34 131 34 H226"></path></g></g></g><g id="g-root-cp_4_g-4_91hq5r15zdnuu-fill" data-item-order="-423346" transform="translate(253, 272)"><g id="cp_4_g-4_91hq5r15zdnuu-fill-merged" stroke="none" fill="#92bd39" fill-opacity="1"><g><path d="M226 10 H131C61.965 10 10 60.964 10 130 H106C106 116.193 117.193 106 131 106 H226 V10"></path></g></g></g><g id="g-root-cp_3_g-3_1ur59rj15zdp8n-fill" data-item-order="-423342" transform="translate(469, 248)"><g id="cp_3_g-3_1ur59rj15zdp8n-fill-merged" stroke="none" fill="#3cc583" fill-opacity="1"><g><path d="M10 130 H105C174.036 130 226 79.036 226 10 H130C130 23.807 118.807 34 105 34 H10 V130"></path></g></g></g><g id="g-root-cp_2_g-2_1qbbrn315zdq0w-fill" data-item-order="-423338" transform="translate(469, 128)"><g id="cp_2_g-2_1qbbrn315zdq0w-fill-merged" stroke="none" fill="#4e88e7" fill-opacity="1"><g><path d="M10 10 H105C174.036 10 226 60.964 226 130 H130C130 116.193 118.807 106 105 106 H10 V10"></path></g></g></g><g id="g-root-cp_1_g-1_1d0hqcv15zdog1-fill" data-item-order="-423334" transform="translate(253, 128)"><g id="cp_1_g-1_1d0hqcv15zdog1-fill-merged" stroke="none" fill="#969696" fill-opacity="1"><g><path d="M226 10 H10 V106 H226 V10"></path></g></g></g><g id="g-root-cp_-1_container_144uq3z15zdp8q-fill" data-item-order="-423315" transform="translate(49, 164)"></g><g id="g-root-cp_-1_container_1_zp17zj15zdq0z-fill" data-item-order="-423303" transform="translate(97, 290)"></g><g id="g-root-cp_-1_container_2_qu0otr15zdnnw-fill" data-item-order="-423291" transform="translate(49, 446)"></g><g id="g-root-cp_-1_container_3_dik6gf15zdp8t-fill" data-item-order="-423279" transform="translate(709, 158)"></g><g id="g-root-cp_-1_container_4_7q56715zdnny-fill" data-item-order="-423267" transform="translate(709, 326)"></g><g id="g-root-tx_narrativ_1hckh4f15yvea2-fill" data-item-order="0" transform="translate(49, 446)"><g id="tx_narrativ_1hckh4f15yvea2-fill-merged" stroke="none" fill="#484848" fill-opacity="1"><g><text style="font: 15px &quot;Roboto&quot;, sans-serif; white-space: pre;" transform="translate(100, 58)" font-size="15px" font-family="'Roboto', sans-serif"><tspan x="-79.72" y="-27" dominant-baseline="ideographic">Narrativa globalizada y </tspan><tspan x="-82.38" y="-9" dominant-baseline="ideographic">estrategias de mercado </tspan><tspan x="-83.88" y="9" dominant-baseline="ideographic">como bien de consumo.  </tspan><tspan x="-75.22" y="27" dominant-baseline="ideographic">Reflexionan sobre los </tspan><tspan x="-63.97" y="45" dominant-baseline="ideographic">cambios sociales.</tspan></text></g></g></g><g id="g-root-tx_iniciode_djt7sf15yu1vo-fill" data-item-order="0" transform="translate(49, 164)"><g id="tx_iniciode_djt7sf15yu1vo-fill-merged" stroke="none" fill="#484848" fill-opacity="1"><g><text style="font: 15px &quot;Roboto&quot;, sans-serif; white-space: pre;" transform="translate(100, 40)" font-size="15px" font-family="'Roboto', sans-serif"><tspan x="-86.3" y="-9" dominant-baseline="ideographic">Inicio de la posguerra y la </tspan><tspan x="-65.92" y="9" dominant-baseline="ideographic">censura franquista. </tspan><tspan x="-63.65" y="27" dominant-baseline="ideographic">Novela en el exilio.</tspan></text></g></g></g><g id="g-root-tx_augedelr_1413yr315yvfv0-fill" data-item-order="0" transform="translate(709, 158)"><g id="tx_augedelr_1413yr315yvfv0-fill-merged" stroke="none" fill="#484848" fill-opacity="1"><g><text style="font: 15px &quot;Roboto&quot;, sans-serif; white-space: pre;" transform="translate(112, 58)" font-size="15px" font-family="'Roboto', sans-serif"><tspan x="-97.52" y="-27" dominant-baseline="ideographic">Auge del realismo social.Los </tspan><tspan x="-76.72" y="-9" dominant-baseline="ideographic">novelistas abordan las </tspan><tspan x="-93.93" y="9" dominant-baseline="ideographic">injusticias sociales y la vida </tspan><tspan x="-85.6" y="27" dominant-baseline="ideographic">cotidiana bajo el régimen </tspan><tspan x="-37.68" y="45" dominant-baseline="ideographic">franquista.</tspan></text></g></g></g><g id="g-root-tx_1975_18nsotr15yu03r-fill" data-item-order="0" transform="translate(1, 218)"><g id="tx_1975_18nsotr15yu03r-fill-merged" stroke="none" fill="#92bd39" fill-opacity="1"><g><text style="font: bold 20px &quot;Roboto&quot;, sans-serif; white-space: pre;" transform="translate(238, 40)" font-weight="bold" font-size="20px" font-family="'Roboto', sans-serif"><tspan x="-206.82" y="12" dominant-baseline="ideographic">1975-1990. Transición</tspan></text></g></g></g><g id="g-root-ic_biot_13zv0kv15ysmwx-fill" data-item-order="0" transform="translate(547, 146)"></g><g id="g-root-ic_fram_1hhk6nj15zdpu0-fill" data-item-order="0" transform="translate(331, 146)"></g><g id="g-root-tx_1970s_zlagmn15yvgn9-fill" data-item-order="0" transform="translate(709, 218)"><g id="tx_1970s_zlagmn15yvgn9-fill-merged" stroke="none" fill="#3cc583" fill-opacity="1"><g><text style="font: bold 20px &quot;Roboto&quot;, sans-serif; white-space: pre;" transform="translate(10, 58)" font-weight="bold" font-size="20px" font-family="'Roboto', sans-serif"><tspan x="2" y="24" dominant-baseline="ideographic">1960-1975. </tspan><tspan x="2" y="48" dominant-baseline="ideographic">Experimentalismo</tspan></text></g></g></g><g id="g-root-tx_1940_18lx9kf15yu13e-fill" data-item-order="0" transform="translate(61, 128)"><g id="tx_1940_18lx9kf15yu13e-fill-merged" stroke="none" fill="#969696" fill-opacity="1"><g><text style="font: bold 20px &quot;Roboto&quot;, sans-serif; white-space: pre;" transform="translate(178, 22)" font-weight="bold" font-size="20px" font-family="'Roboto', sans-serif"><tspan x="-161.67" y="12" dominant-baseline="ideographic">1940s. Posguerra</tspan></text></g></g></g><g id="g-root-ic_publ_dkflpr15zdo95-fill" data-item-order="0" transform="translate(331, 290)"></g><g id="g-root-ic_idea_94m6r315yslcb-fill" data-item-order="0" transform="translate(547, 290)"></g><g id="g-root-tx_transici_4hxgof15yvf9c-fill" data-item-order="0" transform="translate(97, 290)"><g id="tx_transici_4hxgof15yvf9c-fill-merged" stroke="none" fill="#484848" fill-opacity="1"><g><text style="font: 15px &quot;Roboto&quot;, sans-serif; white-space: pre;" transform="translate(76, 67)" font-size="15px" font-family="'Roboto', sans-serif"><tspan x="-50.26" y="-36" dominant-baseline="ideographic">Transición a la </tspan><tspan x="-43.13" y="-18" dominant-baseline="ideographic">democracia.</tspan><tspan x="-63.38" y="0" dominant-baseline="ideographic">Desaparición de la </tspan><tspan x="-30.36" y="18" dominant-baseline="ideographic">censura.</tspan></text></g></g></g><g id="g-root-tx_experime_qq9xgv15yvea6-fill" data-item-order="0" transform="translate(709, 326)"><g id="tx_experime_qq9xgv15yvea6-fill-merged" stroke="none" fill="#484848" fill-opacity="1"><g><text style="font: 15px &quot;Roboto&quot;, sans-serif; white-space: pre;" transform="translate(100, 58)" font-size="15px" font-family="'Roboto', sans-serif"><tspan x="-75.53" y="-27" dominant-baseline="ideographic">Experimentación en la </tspan><tspan x="-74.13" y="-9" dominant-baseline="ideographic">narrativa. Los autores </tspan><tspan x="-81.89" y="9" dominant-baseline="ideographic">exploran nuevas formas </tspan><tspan x="-82.68" y="27" dominant-baseline="ideographic">narrativas y desafían las </tspan><tspan x="-80.63" y="45" dominant-baseline="ideographic">convenciones literarias.</tspan></text></g></g></g><g id="g-root-tx_1950s196_1cwqyzz15yvf2b-fill" data-item-order="0" transform="translate(709, 98)"><g id="tx_1950s196_1cwqyzz15yvf2b-fill-merged" stroke="none" fill="#4e88e7" fill-opacity="1"><g><text style="font: bold 20px &quot;Roboto&quot;, sans-serif; white-space: pre;" transform="translate(10, 34)" font-weight="bold" font-size="20px" font-family="'Roboto', sans-serif"><tspan x="2" y="12" dominant-baseline="ideographic">1950s Realismo social</tspan></text></g></g></g><g id="g-root-tx_finalesd_1uneien15yvfux-fill" data-item-order="0" transform="translate(49, 386)"><g id="tx_finalesd_1uneien15yvfux-fill-merged" stroke="none" fill="#1eabda" fill-opacity="1"><g><text style="font: bold 20px &quot;Roboto&quot;, sans-serif; white-space: pre;" transform="translate(190, 34)" font-weight="bold" font-size="20px" font-family="'Roboto', sans-serif"><tspan x="-177.82" y="0" dominant-baseline="ideographic">Finales del siglo XX </tspan><tspan x="-174.48" y="24" dominant-baseline="ideographic">y principios del XXI</tspan></text></g></g></g><g id="g-root-tx_laevoluc_1ut0p0v15zdo93-fill" data-item-order="0" transform="translate(115, 38)"><g id="tx_laevoluc_1ut0p0v15zdo93-fill-merged" stroke="none" fill="#fd6a65" fill-opacity="1"><g><text style="font: bold 25px &quot;Roboto&quot;, sans-serif; white-space: pre;" transform="translate(364, 28)" font-weight="bold" font-size="25px" font-family="'Roboto', sans-serif"><tspan x="-347.73" y="15" dominant-baseline="ideographic">Evolución de la novela española desde 1940 hasta el siglo XXI</tspan></text></g></g></g><g id="g-root-ic_netf_hrijsf15ysn4e-fill" data-item-order="0" transform="translate(331, 434)"></g><g id="g-root-cp_5_g-5_mcbrfz15zdpfp-stroke" data-item-order="-423350" transform="translate(253, 392)"><g id="cp_5_g-5_mcbrfz15zdpfp-stroke" fill="none" stroke-linecap="round" stroke-linejoin="round" stroke-miterlimit="4" stroke="#ffffff" stroke-width="2" stroke-opacity="1"><g><path d="M 226.0001 34L 226.0001 10L 305.5002 82L 226.0001 154L 226.0001 130.0001L 131.0001 130C 61.9645 130 10 79.0356 10 10L 106.0001 10C 106.0001 23.8071 117.1931 33.9999 131.0001 34L 226.0001 34Z"></path></g></g></g><g id="g-root-cp_4_g-4_91hq5r15zdnuu-stroke" data-item-order="-423346" transform="translate(253, 272)"><g id="cp_4_g-4_91hq5r15zdnuu-stroke" fill="none" stroke-linecap="round" stroke-linejoin="round" stroke-miterlimit="4" stroke="#ffffff" stroke-width="2" stroke-opacity="1"><g><path d="M 226.0001 10L 131.0001 10C 61.9645 10 10 60.9644 10 130L 106.0001 130C 106.0001 116.1929 117.1931 106.0001 131.0001 106L 226.0001 106L 226.0001 10Z"></path></g></g></g><g id="g-root-cp_3_g-3_1ur59rj15zdp8n-stroke" data-item-order="-423342" transform="translate(469, 248)"><g id="cp_3_g-3_1ur59rj15zdp8n-stroke" fill="none" stroke-linecap="round" stroke-linejoin="round" stroke-miterlimit="4" stroke="#ffffff" stroke-width="2" stroke-opacity="1"><g><path d="M 10 130L 105 130C 174.0356 130 226.0001 79.0356 226.0001 10L 130 10C 130 23.8071 118.8071 33.9999 105 34L 10 34L 10 130Z"></path></g></g></g><g id="g-root-cp_2_g-2_1qbbrn315zdq0w-stroke" data-item-order="-423338" transform="translate(469, 128)"><g id="cp_2_g-2_1qbbrn315zdq0w-stroke" fill="none" stroke-linecap="round" stroke-linejoin="round" stroke-miterlimit="4" stroke="#ffffff" stroke-width="2" stroke-opacity="1"><g><path d="M 10 10L 105 10C 174.0356 10 226.0001 60.9644 226.0001 130L 130 130C 130 116.1929 118.8071 106.0001 105 106L 10 106L 10 10Z"></path></g></g></g><g id="g-root-cp_1_g-1_1d0hqcv15zdog1-stroke" data-item-order="-423334" transform="translate(253, 128)"><g id="cp_1_g-1_1d0hqcv15zdog1-stroke" fill="none" stroke-linecap="round" stroke-linejoin="round" stroke-miterlimit="4" stroke="#ffffff" stroke-width="2" stroke-opacity="1"><g><path d="M 226 10L 10 10L 10 106L 226 106L 226 10Z"></path></g></g></g><g id="g-root-cp_-1_container_144uq3z15zdp8q-stroke" data-item-order="-423315" transform="translate(49, 164)"></g><g id="g-root-cp_-1_container_1_zp17zj15zdq0z-stroke" data-item-order="-423303" transform="translate(97, 290)"></g><g id="g-root-cp_-1_container_2_qu0otr15zdnnw-stroke" data-item-order="-423291" transform="translate(49, 446)"></g><g id="g-root-cp_-1_container_3_dik6gf15zdp8t-stroke" data-item-order="-423279" transform="translate(709, 158)"></g><g id="g-root-cp_-1_container_4_7q56715zdnny-stroke" data-item-order="-423267" transform="translate(709, 326)"></g><g id="g-root-tx_narrativ_1hckh4f15yvea2-stroke" data-item-order="0" transform="translate(49, 446)"></g><g id="g-root-tx_iniciode_djt7sf15yu1vo-stroke" data-item-order="0" transform="translate(49, 164)"></g><g id="g-root-tx_augedelr_1413yr315yvfv0-stroke" data-item-order="0" transform="translate(709, 158)"></g><g id="g-root-tx_1975_18nsotr15yu03r-stroke" data-item-order="0" transform="translate(1, 218)"></g><g id="g-root-ic_biot_13zv0kv15ysmwx-stroke" data-item-order="0" transform="translate(547, 146)"><g id="ic_biot_13zv0kv15ysmwx-stroke" fill="none" stroke-linecap="round" stroke-linejoin="round" stroke-miterlimit="4" stroke="#ffffff" stroke-width="2" stroke-opacity="1"><g><path d="M 22.9725 22.959999C 22.9725 28.035 27.984999 32.149998 27.984999 32.149998C 27.984999 32.149998 32.985001 28.035 32.985001 22.959999C 32.985001 17.885 27.984999 13.7725 27.984999 13.7725C 27.984999 13.7725 22.9725 17.887501 22.9725 22.959999ZM 24.414999 29.0625C 28.549999 33.197502 27.984999 40.467499 27.984999 40.467499C 27.984999 40.467499 20.715 41.032501 16.58 36.897499C 12.445 32.762497 13 25.5 13 25.5C 13 25.5 20.280001 24.9275 24.414999 29.0625ZM 31.555 29.0625C 27.42 33.197502 27.984999 40.467499 27.984999 40.467499C 27.984999 40.467499 35.252499 41.032501 39.387501 36.897499C 43.522499 32.762497 42.9575 25.5 42.9575 25.5C 42.9575 25.5 35.689999 24.9275 31.555 29.0625ZM 24.414999 44.0975C 28.549999 48.232502 27.984999 55.5 27.984999 55.5C 27.984999 55.5 20.715 56.065002 16.58 51.93C 12.445 47.794998 13 40.5275 13 40.5275C 13 40.5275 20.280001 39.962498 24.414999 44.0975ZM 40.477501 41.3675C 26.797501 40.215 27.977501 55.502502 27.977501 55.502502C 29.752295 55.588226 31.530581 55.436043 33.265003 55.050003M 27.984999 55.502502L 27.984999 65.092499M 68.142502 52.512497C 68.648529 53.171574 68.648529 54.088432 68.142502 54.747501C 66.247498 57.232498 61.035 62.997498 53.522499 62.997498C 46.010002 62.997498 40.797501 57.224998 38.9025 54.747501C 38.397339 54.088135 38.397339 53.171867 38.9025 52.512505C 40.799999 50.0275 46.010002 44.262501 53.522499 44.262501C 61.035 44.262501 66.25 50.025002 68.142502 52.512497ZM 53.520004 49.25C 55.936245 49.25 57.895004 51.208759 57.895004 53.625C 57.895004 56.041245 55.936245 58 53.520004 58C 51.103752 58 49.145004 56.041245 49.145004 53.625C 49.144333 52.464478 49.605057 51.351288 50.425674 50.53067C 51.246292 49.71006 52.35947 49.249336 53.519997 49.25"></path></g></g></g><g id="g-root-ic_fram_1hhk6nj15zdpu0-stroke" data-item-order="0" transform="translate(331, 146)"><g id="ic_fram_1hhk6nj15zdpu0-stroke" fill="none" stroke-linecap="round" stroke-linejoin="round" stroke-miterlimit="4" stroke="#ffffff" stroke-width="2" stroke-opacity="1"><g><path d="M 13.545 40C 13.545 52.506485 25.389307 62.644997 40 62.644997C 54.610691 62.644997 66.454994 52.506485 66.454994 40C 66.454994 27.493511 54.610691 17.355 40 17.355C 25.389307 17.355 13.545 27.493511 13.545 40M 21.183475 24.101551L 58.812252 55.898499M 58.816498 24.101551L 21.187824 55.898499"></path></g></g></g><g id="g-root-tx_1970s_zlagmn15yvgn9-stroke" data-item-order="0" transform="translate(709, 218)"></g><g id="g-root-tx_1940_18lx9kf15yu13e-stroke" data-item-order="0" transform="translate(61, 128)"></g><g id="g-root-ic_publ_dkflpr15zdo95-stroke" data-item-order="0" transform="translate(331, 290)"><g id="ic_publ_dkflpr15zdo95-stroke" fill="none" stroke-linecap="round" stroke-linejoin="round" stroke-miterlimit="4" stroke="#ffffff" stroke-width="2" stroke-opacity="1"><g><path d="M 20.1 38.724998L 37.5 68.75M 26.6 27.5L 50.5 68.75M 33.099998 16.25L 63.5 68.75M 43.200001 11.25L 68.75 55.375M 11.8 53.125C 11.436288 53.737579 11.24616 54.437595 11.25 55.150002L 11.25 66.25C 11.25 67.630707 12.369288 68.75 13.75 68.75L 66.25 68.75C 67.630707 68.75 68.75 67.630707 68.75 66.25L 68.75 13.75C 68.75 12.369288 67.630707 11.25 66.25 11.25L 37.225002 11.25C 36.447014 11.250422 35.729946 11.671101 35.349998 12.35Z"></path></g></g></g><g id="g-root-ic_idea_94m6r315yslcb-stroke" data-item-order="0" transform="translate(547, 290)"><g id="ic_idea_94m6r315yslcb-stroke" fill="none" stroke-linecap="round" stroke-linejoin="round" stroke-miterlimit="4" stroke="#ffffff" stroke-width="2" stroke-opacity="1"><g><path d="M 67.5 35L 67.5 57.552498C 67.500175 58.91774 66.405067 60.030655 65.040001 60.052498C 51.4575 60.450001 40 64.192497 40 68.75C 40 64.190002 28.539999 60.447502 14.96 60.037498C 13.594934 60.015656 12.499825 58.90274 12.5 57.537498L 12.5 21.295C 12.499903 20.624529 12.769121 19.982119 13.247194 19.512035C 13.725268 19.041954 14.372126 18.783602 15.0425 18.795C 28.5875 19.215 40 22.952501 40 27.5M 18.75 30C 24.323488 30.295017 29.811852 31.494858 35.000004 33.552502M 18.75 38.512501C 24.323189 38.806049 29.811523 40.004196 35 42.059998M 18.75 47.022499C 24.323357 47.314812 29.811888 48.513 35 50.57M 40 27.502501L 40 68.440002M 62.5 26.25C 62.514534 22.432293 59.65892 19.212877 55.86676 18.7717C 52.0746 18.330521 48.556168 20.808376 47.693867 24.527456C 46.831573 28.246536 48.900616 32.019894 52.5 33.2925L 52.5 36.25L 57.5 36.25L 57.5 33.294998C 60.491375 32.243752 62.494957 29.420713 62.500004 26.250002ZM 52.5 41.252502L 57.5 41.252502M 53.75 46.252502L 56.25 46.252502M 55 13.752501L 55 11.2525M 63.839996 17.415001L 65.607498 15.6475M 46.162498 17.415001L 44.392502 15.6475"></path></g></g></g><g id="g-root-tx_transici_4hxgof15yvf9c-stroke" data-item-order="0" transform="translate(97, 290)"></g><g id="g-root-tx_experime_qq9xgv15yvea6-stroke" data-item-order="0" transform="translate(709, 326)"></g><g id="g-root-tx_1950s196_1cwqyzz15yvf2b-stroke" data-item-order="0" transform="translate(709, 98)"></g><g id="g-root-tx_finalesd_1uneien15yvfux-stroke" data-item-order="0" transform="translate(49, 386)"></g><g id="g-root-tx_laevoluc_1ut0p0v15zdo93-stroke" data-item-order="0" transform="translate(115, 38)"></g><g id="g-root-ic_netf_hrijsf15ysn4e-stroke" data-item-order="0" transform="translate(331, 434)"><g id="ic_netf_hrijsf15ysn4e-stroke" fill="none" stroke-linecap="round" stroke-linejoin="round" stroke-miterlimit="4" stroke="#ffffff" stroke-width="2" stroke-opacity="1"><g><path d="M 35.2425 67.342499L 23.3125 68.75L 23.3125 11.25L 35.2425 42.452499L 35.2425 67.342499ZM 56.6875 68.75L 44.7575 36.764999L 44.7575 11.25L 56.6875 11.25L 56.6875 68.75ZM 56.6875 68.75L 44.7575 67.342499L 23.3125 11.25L 35.2425 11.25L 56.6875 68.75Z"></path></g></g></g></g></g><path id="w18jfa3j17mx98g" d="M65.283 12.757a.35.35 0 0 0 .584.157l5.203-5.141-6.183 3.523.396 1.461zm-2.216-11.7a.35.35 0 0 0-.522.305v3.111l3.276-1.868-2.754-1.548zm3.728 2.105l-4.25 2.421v2.445l6.391-3.644-2.141-1.222zm4.708 3.303a.35.35 0 0 0 0-.609l-1.592-.9-7.365 4.199v1.782a.35.35 0 0 0 .523.305l8.435-4.777z M44.542 2.513c0-.433.355-.783.792-.783s.792.35.792.783-.355.783-.792.783-.792-.35-.792-.783zm59.171 0c0-.433.355-.783.792-.783s.792.35.792.783-.355.783-.792.783-.792-.35-.792-.783zm-85.951 7.636h-1.27v-.487c-.276.201-.864.609-1.881.609-1.202 0-2.274-.794-2.137-2.078.118-1.106 1.153-1.584 1.848-1.727l2.17-.345c0-.539-.29-.956-1.064-1.006s-1.21.305-1.571 1.017l-1.124-.605c1.218-2.631 5.029-1.764 5.029.414v4.207zm-1.27-2.86c.006.396-.062 1.112-.819 1.59-.587.37-1.841.299-1.903-.395-.049-.555.461-.791.906-.898l1.816-.297zm72.662 2.86h-1.27v-.487c-.276.201-.864.609-1.881.609-1.202 0-2.274-.794-2.137-2.078.118-1.106 1.153-1.584 1.848-1.727l2.17-.345c0-.539-.29-.956-1.064-1.006s-1.21.305-1.571 1.017l-1.124-.605c1.218-2.631 5.029-1.764 5.029.414v4.207zm-1.27-2.86c.006.396-.062 1.112-.82 1.59-.587.37-1.841.299-1.903-.395-.049-.555.461-.791.906-.898l1.816-.297zM99.096 10.149H97.85v-8.45h1.246v4.895l2.68-2.559h1.738l-2.633 2.535 2.715 3.578h-1.556l-2.077-2.707-.867.844v1.863zm6.053-6.114h-1.255v6.113h1.255V4.035zm-59.2 0h-1.255v6.113h1.255V4.035zm5.584 6.113V1.697h1.255v2.695c.361-.346 1-.485 1.47-.485 1.452 0 2.477 1.082 2.457 2.448v3.792h-1.27v-3.68c0-.408-.214-1.339-1.315-1.339-.968 0-1.342.756-1.342 1.339v3.681h-1.255zm-4.76-4.894V4.039h.621a.45.45 0 0 0 .45-.45v-.855h1.251v1.305h1.309v1.215h-1.309v3.109c0 .293.105.664.648.664.365 0 .531-.035.736-.07v1.137s-.361.113-.857.113c-1.398 0-1.777-1.051-1.777-1.788V5.254h-1.071zM36.528 4.039h-1.394l2.191 6.106h1.125l1.234-3.918 1.238 3.918h1.129l2.188-6.106h-1.383l-1.359 3.93-1.256-3.93h-1.124l-1.242 3.957-1.348-3.957zM26.212 7.141c-.02 1.566 1.187 3.129 3.223 3.129 1.566 0 2.383-.918 2.734-1.719L31.172 8c-.315.399-.801 1.094-1.738 1.094-1.145 0-1.825-.781-1.891-1.52h4.625c.074-.284.148-.995-.03-1.559-.336-1.064-1.221-2.102-2.839-2.102s-3.088 1.152-3.088 3.227zm1.363-.75h3.348c-.055-.43-.566-1.301-1.623-1.301a1.79 1.79 0 0 0-1.725 1.301zm-8.758.75c.038 1.758 1.277 3.133 3.145 3.133 1.074 0 1.723-.477 1.961-.672v.547h1.242V1.703h-1.258v2.888c-.414-.36-1.062-.68-1.93-.68-1.91 0-3.198 1.473-3.16 3.23zm1.309-.08c0 1.119.723 1.978 1.836 1.978a1.88 1.88 0 0 0 1.94-1.904c0-1.371-1.011-1.99-1.972-1.99s-1.805.798-1.805 1.916zm76.683-.028C96.771 5.275 95.532 3.9 93.664 3.9c-1.074 0-1.723.477-1.961.672v-.547h-1.242v8.22h1.258V9.583c.414.36 1.063.68 1.93.68 1.91 0 3.198-1.473 3.16-3.23zm-1.309.08c0-1.119-.723-1.978-1.836-1.978a1.88 1.88 0 0 0-1.94 1.904c0 1.371 1.011 1.99 1.972 1.99S95.5 8.231 95.5 7.113zM106.441 10.173V4.036h1.254v.382c.361-.346 1-.485 1.47-.485 1.452 0 2.477 1.082 2.457 2.448v3.792h-1.27V6.492c0-.408-.214-1.339-1.315-1.339-.969 0-1.342.756-1.342 1.339v3.681h-1.254zm-30.383-.021V1.824h1.084l4.215 5.777V1.824h1.32v8.328h-1.094l-4.207-5.796v5.796h-1.319zM5.24 10.149H4V2.377h1.014l2.664 3.597 2.654-3.592h1.03v7.766h-1.256V4.762L7.678 8.068 5.24 4.742v5.407z" transform="translate(836, 594)" fill="#80808088" stroke="none"></path></svg>