<?xml version="1.0" encoding="utf-8" standalone="yes"?>
<!DOCTYPE svg PUBLIC "-//W3C//DTD SVG 1.1//EN" "http://www.w3.org/Graphics/SVG/1.1/DTD/svg11.dtd">
<svg style="fill:none;stroke:none;fill-rule:evenodd;clip-rule:evenodd;stroke-linecap:round;stroke-linejoin:round;stroke-miterlimit:1.5;" version="1.1" xmlns="http://www.w3.org/2000/svg" xmlns:xlink="http://www.w3.org/1999/xlink" width="756" height="601" viewBox="0 0 756 601"><style class="text-font-style fontImports" data-font-family="Roboto">@import url(https://fonts.googleapis.com/css2?family=Roboto:wght@400;700&amp;amp;display=block);</style><g id="items" style="isolation: isolate"><g id="blend" style="mix-blend-mode: normal"><g id="g-root-sy_8_Vector_1hbyixl1jkedc2-fill" data-item-order="-146057" transform="translate(273.720458984375, 147.1099853515625)"><g id="sy_8_Vector_1hbyixl1jkedc2-fill-merged" stroke="none" fill="#de58a9" fill-opacity="1"><g><path d="M81.522 98.053L74.955 115.889L57.7 107.921L64.33 105.175L54.333 81.04C37.426 85.078 19.614 76.358 12.75 59.786C5.142 41.417 13.864 20.358 32.233 12.75C50.602 5.141 71.661 13.864 79.27 32.233C86.124 48.781 79.724 67.513 64.956 76.627L74.958 100.772L81.522 98.053"></path></g></g></g><g id="g-root-sy_7_Vector_1414hnd1jkebr7-fill" data-item-order="-146053" transform="translate(182.99603271484375, 237.8345947265625)"><g id="sy_7_Vector_1414hnd1jkebr7-fill-merged" stroke="none" fill="#7f64ea" fill-opacity="1"><g><path d="M107.921 57.699L115.889 74.954L98.053 81.521L100.8 74.891L76.665 64.894C67.565 79.705 48.804 86.133 32.233 79.269C13.864 71.66 5.141 50.601 12.75 32.232C20.358 13.864 41.417 5.141 59.786 12.749C76.334 19.604 85.054 37.375 81.056 54.262L105.202 64.263L107.921 57.699"></path></g></g></g><g id="g-root-sy_6_Vector_v5hheh1jkecjw-fill" data-item-order="-146049" transform="translate(182.79901123046875, 366.27734375)"><g id="sy_6_Vector_v5hheh1jkecjw-fill-merged" stroke="none" fill="#de8431" fill-opacity="1"><g><path d="M107.979 34.296L115.948 17.041L98.112 10.474L100.858 17.104L76.665 27.125C67.566 12.314 48.805 5.886 32.233 12.75C13.864 20.359 5.141 41.418 12.75 59.787C20.359 78.155 41.417 86.878 59.786 79.27C76.335 72.415 85.054 54.644 81.057 37.758L105.26 27.732L107.979 34.296"></path></g></g></g><g id="g-root-sy_5_Vector_hu0z151jkee4t-fill" data-item-order="-146045" transform="translate(273.720458984375, 423.27001953125)"><g id="sy_5_Vector_hu0z151jkee4t-fill-merged" stroke="none" fill="#e0cb15" fill-opacity="1"><g><path d="M81.546 27.836L74.979 10L57.724 17.969L64.354 20.715L54.333 44.908C37.426 40.869 19.614 49.59 12.75 66.162C5.142 84.53 13.864 105.589 32.233 113.198C50.602 120.806 71.661 112.084 79.269 93.715C86.124 77.166 79.724 58.434 64.956 49.321L74.982 25.117L81.546 27.836"></path></g></g></g><g id="g-root-sy_4_Vector_4j6xqx1jkecjy-fill" data-item-order="-146041" transform="translate(402.163330078125, 423.27001953125)"><g id="sy_4_Vector_4j6xqx1jkecjy-fill-merged" stroke="none" fill="#1eabda" fill-opacity="1"><g><path d="M34.296 17.969L17.04 10L10.474 27.836L17.104 25.09L27.125 49.283C12.314 58.382 5.886 77.143 12.75 93.715C20.359 112.084 41.418 120.806 59.786 113.198C78.155 105.589 86.878 84.53 79.269 66.161C72.415 49.613 54.643 40.893 37.757 44.891L27.732 20.688L34.296 17.969"></path></g></g></g><g id="g-root-sy_3_Vector_3dfmh1jkedc7-fill" data-item-order="-146037" transform="translate(459.156005859375, 366.277587890625)"><g id="sy_3_Vector_3dfmh1jkedc7-fill-merged" stroke="none" fill="#92bd39" fill-opacity="1"><g><path d="M27.836 10.473L10 17.04L17.969 34.295L20.715 27.665L44.908 37.686C40.869 54.593 49.59 72.404 66.161 79.269C84.53 86.877 105.589 78.154 113.198 59.786C120.806 41.417 112.083 20.358 93.715 12.749C77.166 5.895 58.434 12.295 49.321 27.062L25.117 17.037L27.836 10.473"></path></g></g></g><g id="g-root-sy_2_Vector_1ltngbd1jkebk8-fill" data-item-order="-146033" transform="translate(459.0169677734375, 237.8345947265625)"><g id="sy_2_Vector_1ltngbd1jkebk8-fill-merged" stroke="none" fill="#3cc583" fill-opacity="1"><g><path d="M27.836 81.521L10 74.954L17.969 57.699L20.715 64.329L44.85 54.332C40.811 37.425 49.532 19.614 66.104 12.749C84.473 5.141 105.531 13.864 113.14 32.232C120.749 50.601 112.026 71.66 93.657 79.269C77.108 86.123 58.376 79.723 49.263 64.956L25.117 74.957L27.836 81.521"></path></g></g></g><g id="g-root-sy_1_Vector_1hdty6x1jkecch-fill" data-item-order="-146029" transform="translate(402.163330078125, 147.1099853515625)"><g id="sy_1_Vector_1hdty6x1jkecch-fill-merged" stroke="none" fill="#e55753" fill-opacity="1"><g><path d="M34.32 107.921L17.064 115.89L10.498 98.053L17.128 100.8L27.125 76.665C12.314 67.565 5.886 48.804 12.75 32.233C20.359 13.864 41.417 5.141 59.786 12.75C78.155 20.358 86.878 41.417 79.269 59.786C72.415 76.335 54.643 85.054 37.757 81.056L27.756 105.202L34.32 107.921"></path></g></g></g><g id="g-root-cr_0_cr-big_142dftl1jkedxe-fill" data-item-order="-146025" transform="translate(302, 265.9959716796875)"><g id="cr_0_cr-big_142dftl1jkedxe-fill-merged" stroke="none" fill="#fd6a65" fill-opacity="1"><g><path d="M10 82C10 121.765 42.236 154 82 154C121.765 154 154 121.765 154 82C154 42.236 121.765 10 82 10C42.236 10 10 42.236 10 82"></path></g></g></g><g id="g-root-tx_contenid_9408k91jkebyi-fill" data-item-order="0" transform="translate(482, 157.9998779296875)"><g id="tx_contenid_9408k91jkebyi-fill-merged" stroke="none" fill="#484848" fill-opacity="1"><g><text style="font: bold 20px &quot;Roboto&quot;, sans-serif; white-space: pre;" transform="translate(88, 22)" font-weight="bold" font-size="20px" font-family="'Roboto', sans-serif"><tspan x="-72.86" y="12.33" dominant-baseline="ideographic">Realismo crítico</tspan></text></g></g></g><g id="g-root-ic_1_1uoo2mx1jko5j6-fill" data-item-order="0" transform="translate(414.31201171875, 158.7850341796875)"></g><g id="g-root-ic_time_1hdty6x1jkts06-fill" data-item-order="0" transform="translate(193.2330322265625, 249.052978515625)"></g><g id="g-root-tx_narrador_1usetzt1jkeb67-fill" data-item-order="0" transform="translate(482, 493.9998779296875)"><g id="tx_narrador_1usetzt1jkeb67-fill-merged" stroke="none" fill="#484848" fill-opacity="1"><g><text style="font: bold 20px &quot;Roboto&quot;, sans-serif; white-space: pre;" transform="translate(10, 34)" font-weight="bold" font-size="20px" font-family="'Roboto', sans-serif"><tspan x="2" y="0.33" dominant-baseline="ideographic">Narrador </tspan><tspan x="2" y="24.33" dominant-baseline="ideographic">objetivista</tspan></text></g></g></g><g id="g-root-ic_gath_140i3q11jkmt4x-fill" data-item-order="0" transform="translate(505.23199462890625, 249.7049560546875)"></g><g id="g-root-tx_condensa_58uvt1jkecck-fill" data-item-order="0" transform="translate(26.000030517578125, 230)"><g id="tx_condensa_58uvt1jkecck-fill-merged" stroke="none" fill="#484848" fill-opacity="1"><g><text style="font: bold 20px &quot;Roboto&quot;, sans-serif; white-space: pre;" transform="translate(82, 46)" font-weight="bold" font-size="20px" font-family="'Roboto', sans-serif"><tspan x="-66.51" y="-11.67" dominant-baseline="ideographic">Condensación </tspan><tspan x="-43.79" y="12.33" dominant-baseline="ideographic">espacial-</tspan><tspan x="-42.69" y="36.33" dominant-baseline="ideographic">temporal</tspan></text></g></g></g><g id="g-root-tx_protagon_vaha3d1jkecqp-fill" data-item-order="0" transform="translate(578, 242)"><g id="tx_protagon_vaha3d1jkecqp-fill-merged" stroke="none" fill="#484848" fill-opacity="1"><g><text style="font: bold 20px &quot;Roboto&quot;, sans-serif; white-space: pre;" transform="translate(76, 34)" font-weight="bold" font-size="20px" font-family="'Roboto', sans-serif"><tspan x="-60.29" y="0.33" dominant-baseline="ideographic">Protagonista </tspan><tspan x="-43.26" y="24.33" dominant-baseline="ideographic">colectivo</tspan></text></g></g></g><g id="g-root-ic_open_1d308rd1jkecjo-fill" data-item-order="0" transform="translate(338, 301.9959716796875)"></g><g id="g-root-ic_quil_m8lizd1jkr023-fill" data-item-order="0" transform="translate(285.59100341796875, 158.7850341796875)"></g><g id="g-root-ic_head_1q6z5951jk8rnt-fill" data-item-order="0" transform="translate(194.80902099609375, 378.2869873046875)"></g><g id="g-root-ic_text_13z95jt1jkmqyv-fill" data-item-order="0" transform="translate(506.8079833984375, 378.9400634765625)"></g><g id="g-root-tx_estructu_18k2d7d1jkec5h-fill" data-item-order="0" transform="translate(14, 397.9998779296875)"><g id="tx_estructu_18k2d7d1jkec5h-fill-merged" stroke="none" fill="#484848" fill-opacity="1"><g><text style="font: bold 20px &quot;Roboto&quot;, sans-serif; white-space: pre;" transform="translate(88, 22)" font-weight="bold" font-size="20px" font-family="'Roboto', sans-serif"><tspan x="-73.23" y="12.33" dominant-baseline="ideographic">Estructura lineal</tspan></text></g></g></g><g id="g-root-tx_lenguaje_1d14ti11jkedjc-fill" data-item-order="0" transform="translate(578, 385.9998779296875)"><g id="tx_lenguaje_1d14ti11jkedjc-fill-merged" stroke="none" fill="#484848" fill-opacity="1"><g><text style="font: bold 20px &quot;Roboto&quot;, sans-serif; white-space: pre;" transform="translate(10, 34)" font-weight="bold" font-size="20px" font-family="'Roboto', sans-serif"><tspan x="2" y="0.33" dominant-baseline="ideographic">Lenguaje </tspan><tspan x="2" y="24.33" dominant-baseline="ideographic">coloquial</tspan></text></g></g></g><g id="g-root-tx_primacad_qrjejd1jkeccj-fill" data-item-order="0" transform="translate(140, 133.9998779296875)"><g id="tx_primacad_qrjejd1jkeccj-fill-merged" stroke="none" fill="#484848" fill-opacity="1"><g><text style="font: bold 20px &quot;Roboto&quot;, sans-serif; white-space: pre;" transform="translate(76, 34)" font-weight="bold" font-size="20px" font-family="'Roboto', sans-serif"><tspan x="-58.7" y="0.33" dominant-baseline="ideographic">Primacía del </tspan><tspan x="-47.27" y="24.33" dominant-baseline="ideographic">contenido</tspan></text></g></g></g><g id="g-root-ic_1_8x53rt1jka3nl-fill" data-item-order="0" transform="translate(285.7300109863281, 469.2081298828125)"></g><g id="g-root-ic_view_1lselax1jkh4i3-fill" data-item-order="0" transform="translate(414.1729736328125, 469.2081298828125)"></g><g id="g-root-tx_predomin_mdlbo91jkebda-fill" data-item-order="0" transform="translate(116, 493.9998779296875)"><g id="tx_predomin_mdlbo91jkebda-fill-merged" stroke="none" fill="#484848" fill-opacity="1"><g><text style="font: bold 20px &quot;Roboto&quot;, sans-serif; white-space: pre;" transform="translate(88, 34)" font-weight="bold" font-size="20px" font-family="'Roboto', sans-serif"><tspan x="-70.54" y="0.33" dominant-baseline="ideographic">Predominio del </tspan><tspan x="-35.76" y="24.33" dominant-baseline="ideographic">diálogo</tspan></text></g></g></g><g id="g-root-tx_caracter_1qdua1l1jkee4j-fill" data-item-order="0" transform="translate(176, 37.9998779296875)"><g id="tx_caracter_1qdua1l1jkee4j-fill-merged" stroke="none" fill="#fd6a65" fill-opacity="1"><g><text style="font: bold 25px &quot;Roboto&quot;, sans-serif; white-space: pre;" transform="translate(208, 28)" font-weight="bold" font-size="25px" font-family="'Roboto', sans-serif"><tspan x="-194.6" y="15" dominant-baseline="ideographic">Características de la novela social </tspan></text></g></g></g><g id="g-root-sy_8_Vector_1hbyixl1jkedc2-stroke" data-item-order="-146057" transform="translate(273.720458984375, 147.1099853515625)"><g id="sy_8_Vector_1hbyixl1jkedc2-stroke" fill="none" stroke-linecap="round" stroke-linejoin="round" stroke-miterlimit="4" stroke="#ffffff" stroke-width="2" stroke-opacity="1"><g><path d="M 81.521541 98.052954L 74.954541 115.888954L 57.699541 107.920954L 64.329541 105.174954L 54.332541 81.039954C 37.425541 85.077954 19.613541 76.357954 12.749541 59.785954C 5.141541 41.416954 13.863541 20.357954 32.232541 12.749954C 50.601541 5.140954 71.660541 13.863954 79.269541 32.232954C 86.123541 48.780954 79.723541 67.512954 64.955541 76.626954L 74.957541 100.771954L 81.521541 98.052954Z"></path></g></g></g><g id="g-root-sy_7_Vector_1414hnd1jkebr7-stroke" data-item-order="-146053" transform="translate(182.99603271484375, 237.8345947265625)"><g id="sy_7_Vector_1414hnd1jkebr7-stroke" fill="none" stroke-linecap="round" stroke-linejoin="round" stroke-miterlimit="4" stroke="#ffffff" stroke-width="2" stroke-opacity="1"><g><path d="M 107.920952 57.699405L 115.888952 74.954405L 98.052952 81.521405L 100.799952 74.891405L 76.664952 64.894405C 67.564952 79.705405 48.803952 86.133405 32.232952 79.269405C 13.863952 71.660405 5.140952 50.601405 12.749952 32.232405C 20.357952 13.864405 41.416952 5.141405 59.785952 12.749405C 76.333952 19.604405 85.053952 37.375405 81.055952 54.262405L 105.201952 64.263405L 107.920952 57.699405Z"></path></g></g></g><g id="g-root-sy_6_Vector_v5hheh1jkecjw-stroke" data-item-order="-146049" transform="translate(182.79901123046875, 366.27734375)"><g id="sy_6_Vector_v5hheh1jkecjw-stroke" fill="none" stroke-linecap="round" stroke-linejoin="round" stroke-miterlimit="4" stroke="#ffffff" stroke-width="2" stroke-opacity="1"><g><path d="M 107.978989 34.295626L 115.947989 17.040626L 98.111989 10.473626L 100.857989 17.103626L 76.664989 27.124626C 67.565989 12.313626 48.804989 5.885626 32.232989 12.749626C 13.863989 20.358626 5.140989 41.417626 12.749989 59.786626C 20.358989 78.154626 41.416989 86.877626 59.785989 79.269626C 76.334989 72.414626 85.053989 54.643626 81.056989 37.757626L 105.259989 27.731626L 107.978989 34.295626Z"></path></g></g></g><g id="g-root-sy_5_Vector_hu0z151jkee4t-stroke" data-item-order="-146045" transform="translate(273.720458984375, 423.27001953125)"><g id="sy_5_Vector_hu0z151jkee4t-stroke" fill="none" stroke-linecap="round" stroke-linejoin="round" stroke-miterlimit="4" stroke="#ffffff" stroke-width="2" stroke-opacity="1"><g><path d="M 81.545541 27.836011L 74.978541 10.000011L 57.723541 17.969011L 64.353541 20.715011L 54.332541 44.908011C 37.425541 40.869011 19.613541 49.590011 12.749541 66.162011C 5.141541 84.530011 13.863541 105.589011 32.232541 113.198011C 50.601541 120.806011 71.660541 112.084011 79.268541 93.715011C 86.123541 77.166011 79.723541 58.434011 64.955541 49.321011L 74.981541 25.117011L 81.545541 27.836011Z"></path></g></g></g><g id="g-root-sy_4_Vector_4j6xqx1jkecjy-stroke" data-item-order="-146041" transform="translate(402.163330078125, 423.27001953125)"><g id="sy_4_Vector_4j6xqx1jkecjy-stroke" fill="none" stroke-linecap="round" stroke-linejoin="round" stroke-miterlimit="4" stroke="#ffffff" stroke-width="2" stroke-opacity="1"><g><path d="M 34.295639 17.969011L 17.039639 10.000011L 10.473639 27.836011L 17.103639 25.090011L 27.124639 49.283011C 12.313639 58.382011 5.885639 77.143011 12.749639 93.715011C 20.358639 112.084011 41.417639 120.806011 59.785639 113.198011C 78.154639 105.589011 86.877639 84.530011 79.268639 66.161011C 72.414639 49.613011 54.642639 40.893011 37.756639 44.891011L 27.731639 20.688011L 34.295639 17.969011Z"></path></g></g></g><g id="g-root-sy_3_Vector_3dfmh1jkedc7-stroke" data-item-order="-146037" transform="translate(459.156005859375, 366.277587890625)"><g id="sy_3_Vector_3dfmh1jkedc7-stroke" fill="none" stroke-linecap="round" stroke-linejoin="round" stroke-miterlimit="4" stroke="#ffffff" stroke-width="2" stroke-opacity="1"><g><path d="M 27.835994 10.473443L 9.999994 17.040443L 17.968994 34.295443L 20.714994 27.665443L 44.907994 37.686443C 40.868994 54.593443 49.589994 72.404443 66.160994 79.269443C 84.529994 86.877443 105.588994 78.154443 113.197994 59.786443C 120.805994 41.417443 112.082994 20.358443 93.714994 12.749443C 77.165994 5.895443 58.433994 12.295443 49.320994 27.062443L 25.116994 17.037443L 27.835994 10.473443Z"></path></g></g></g><g id="g-root-sy_2_Vector_1ltngbd1jkebk8-stroke" data-item-order="-146033" transform="translate(459.0169677734375, 237.8345947265625)"><g id="sy_2_Vector_1ltngbd1jkebk8-stroke" fill="none" stroke-linecap="round" stroke-linejoin="round" stroke-miterlimit="4" stroke="#ffffff" stroke-width="2" stroke-opacity="1"><g><path d="M 27.836002 81.521405L 10.000002 74.954405L 17.969002 57.699405L 20.715002 64.329405L 44.850002 54.332405C 40.811002 37.425405 49.532002 19.614405 66.104002 12.749405C 84.473002 5.141405 105.531002 13.864405 113.140002 32.232405C 120.749002 50.601405 112.026002 71.660405 93.657002 79.269405C 77.108002 86.123405 58.376002 79.723405 49.263002 64.956405L 25.117002 74.957405L 27.836002 81.521405Z"></path></g></g></g><g id="g-root-sy_1_Vector_1hdty6x1jkecch-stroke" data-item-order="-146029" transform="translate(402.163330078125, 147.1099853515625)"><g id="sy_1_Vector_1hdty6x1jkecch-stroke" fill="none" stroke-linecap="round" stroke-linejoin="round" stroke-miterlimit="4" stroke="#ffffff" stroke-width="2" stroke-opacity="1"><g><path d="M 34.319639 107.920954L 17.063639 115.889954L 10.497639 98.052954L 17.127639 100.799954L 27.124639 76.664954C 12.313639 67.564954 5.885639 48.803954 12.749639 32.232954C 20.358639 13.863954 41.416639 5.140954 59.785639 12.749954C 78.154639 20.357954 86.877639 41.416954 79.268639 59.785954C 72.414639 76.334954 54.642639 85.053954 37.756639 81.055954L 27.755639 105.201954L 34.319639 107.920954Z"></path></g></g></g><g id="g-root-cr_0_cr-big_142dftl1jkedxe-stroke" data-item-order="-146025" transform="translate(302, 265.9959716796875)"><g id="cr_0_cr-big_142dftl1jkedxe-stroke" fill="none" stroke-linecap="round" stroke-linejoin="round" stroke-miterlimit="4" stroke="#e55753" stroke-width="2" stroke-opacity="1"><g><path d="M 10 82C 10.000001 121.764503 42.235499 154.000001 82.000001 154.000001C 121.764503 154.000001 154.000001 121.764503 154.000001 82.000001C 154.000001 42.235499 121.764503 10.000001 82.000001 10.000001C 42.235499 10.000001 10.000001 42.235499 10.000001 82.000001"></path></g></g></g><g id="g-root-tx_contenid_9408k91jkebyi-stroke" data-item-order="0" transform="translate(482, 157.9998779296875)"></g><g id="g-root-ic_1_1uoo2mx1jko5j6-stroke" data-item-order="0" transform="translate(414.31201171875, 158.7850341796875)"><g id="ic_1_1uoo2mx1jko5j6-stroke" fill="none" stroke-linecap="round" stroke-linejoin="round" stroke-miterlimit="4" stroke="#ffffff" stroke-width="2" stroke-opacity="1"><g><path d="M 27 33C 27.276142 33 27.5 33.223858 27.5 33.5C 27.5 33.776142 27.276142 34 27 34C 26.723858 34 26.5 33.776142 26.5 33.5C 26.499466 33.367226 26.551971 33.239738 26.645857 33.145859C 26.73974 33.051971 26.867228 32.999466 27 33M 43 46C 43.276142 46 43.5 46.223858 43.5 46.5C 43.5 46.776142 43.276142 47 43 47C 42.723858 47 42.5 46.776142 42.5 46.5C 42.5 46.223858 42.723858 46 43 46M 43 42L 43 38M 25.942001 47.346001L 12.724 53.498001L 17.9 43.166C 13.66403 39.996136 11.11989 35.055344 11 29.766001C 11 19.4 21.296 11 34 11C 46.703999 11 57 19.4 57 29.766001M 29.4 42.762001C 29.4 48.978001 35.577999 54.02 43.200001 54.02C 44.838352 54.023315 46.468121 53.783363 48.035999 53.307999L 55.966 57L 52.860001 50.799999C 55.401318 48.898746 56.927814 45.934986 57 42.762001C 57 36.543999 50.821999 31.502001 43.200001 31.502001C 35.577999 31.502001 29.4 36.543999 29.4 42.762001ZM 23 22C 22.99683 19.951126 24.542343 18.231117 26.579889 18.01593C 28.617435 17.800745 30.48815 19.159964 30.91304 21.164299C 31.337931 23.168636 30.179604 25.169968 28.23 25.799999C 27.493292 26.038002 26.99564 26.725813 27 27.5L 27 29"></path></g></g></g><g id="g-root-ic_time_1hdty6x1jkts06-stroke" data-item-order="0" transform="translate(193.2330322265625, 249.052978515625)"><g id="ic_time_1hdty6x1jkts06-stroke" fill="none" stroke-linecap="round" stroke-linejoin="round" stroke-miterlimit="4" stroke="#ffffff" stroke-width="2" stroke-opacity="1"><g><path d="M 33 45C 33 51.627419 38.372581 57 45 57C 51.627419 57 57 51.627419 57 45C 57 38.372581 51.627419 33 45 33C 38.372581 33 33 38.372581 33 45M 49 45L 45 45L 45 39M 30 52.900002C 18.96896 51.847305 10.654165 42.404675 11.005535 31.329092C 11.356906 20.253508 20.253508 11.356906 31.329092 11.005535C 42.404675 10.654165 51.847305 18.96896 52.900002 30M 11.32 28.34L 22.42 28.34C 23.884014 28.348686 25.282732 28.947107 26.299999 30L 28.299999 32C 30.364096 34.048164 30.460829 37.354668 28.52 39.52L 26 42.32C 25.126408 43.343643 24.66324 44.654762 24.700001 46L 24.700001 51.740002M 47.080002 17.4L 36.5 17.4C 34.235634 17.4 32.400002 19.235634 32.400002 21.5C 32.400002 23.764366 34.235634 25.6 36.5 25.6L 37.279999 25.6C 39.104786 25.590874 40.8144 26.490671 41.84 28L 42.34 28.74"></path></g></g></g><g id="g-root-tx_narrador_1usetzt1jkeb67-stroke" data-item-order="0" transform="translate(482, 493.9998779296875)"></g><g id="g-root-ic_gath_140i3q11jkmt4x-stroke" data-item-order="0" transform="translate(505.23199462890625, 249.7049560546875)"><g id="ic_gath_140i3q11jkmt4x-stroke" fill="none" stroke-linecap="round" stroke-linejoin="round" stroke-miterlimit="4" stroke="#ffffff" stroke-width="2" stroke-opacity="1"><g><path d="M 23.707996 29.675995C 23.861301 28.511677 23.097317 27.423954 21.950052 27.17312C 20.802786 26.922287 19.654575 27.591934 19.307997 28.713995C 18.517998 31.133995 17.151999 35.455994 16.507998 38.363991C 16.260551 39.470306 16.296322 40.621178 16.611998 41.709991L 11.561999 46.73399M 15.569999 56.383984L 23.079996 48.923988M 43.609989 26.843994C 42.683987 25.115995 41.673992 23.311996 40.80999 21.949997C 40.201912 20.99403 39.36364 20.205957 38.37199 19.657997L 38.39999 11.532M 28.733994 11.54L 28.697994 19.125998C 26.801712 19.688948 25.245325 21.051062 24.435995 22.855995M 27.999994 34.267994C 27.187349 33.517754 25.927286 33.543114 25.145491 34.325447C 24.363693 35.10778 24.339197 36.367863 25.089994 37.179989L 25.055996 37.213993L 32.623993 44.639988L 29.729994 44.321987C 28.565678 44.168682 27.477955 44.932667 27.227119 46.079933C 26.976286 47.2272 27.645933 48.375408 28.767994 48.721989C 31.185995 49.51199 35.509995 50.875988 38.417992 51.521988C 39.524574 51.76775 40.675186 51.7313 41.763992 51.415993L 46.787987 56.471985M 35.285992 35.847992L 30.285994 30.731995C 29.475325 29.968018 28.204197 29.98686 27.416529 30.774529C 26.62886 31.562197 26.610018 32.833324 27.373993 33.643993L 32.163994 38.333992M 30.913994 31.355995C 30.36779 30.841251 30.144762 30.070181 30.331841 29.34334C 30.518919 28.616497 31.086498 28.04892 31.813339 27.861841C 32.54018 27.674761 33.311249 27.897791 33.825993 28.443993L 38.61599 33.467995M 56.437984 52.46199L 48.977989 44.951988C 50.408104 42.336926 49.946598 39.092533 47.84399 36.979992L 37.925991 27.179995L 37.925991 27.179995C 37.249004 26.510239 36.187542 26.426743 35.414165 26.982407C 34.640785 27.538073 34.381245 28.570698 34.799992 29.425995"></path></g></g></g><g id="g-root-tx_condensa_58uvt1jkecck-stroke" data-item-order="0" transform="translate(26.000030517578125, 230)"></g><g id="g-root-tx_protagon_vaha3d1jkecqp-stroke" data-item-order="0" transform="translate(578, 242)"></g><g id="g-root-ic_open_1d308rd1jkecjo-stroke" data-item-order="0" transform="translate(338, 301.9959716796875)"><g id="ic_open_1d308rd1jkecjo-stroke" fill="none" stroke-linecap="round" stroke-linejoin="round" stroke-miterlimit="4" stroke="#ffffff" stroke-width="2" stroke-opacity="1"><g><path d="M 61.57 11.68C 62.08625 11.366943 62.733749 11.366943 63.25 11.68C 63.749527 12.010544 64.035278 12.58205 64 13.18C 63.459999 20.83 60.669998 40.720001 46 40.720001C 41.173004 41.394253 36.395153 39.196815 33.765636 35.093147C 31.136116 30.989475 31.136116 25.730524 33.765636 21.626852C 36.395153 17.52318 41.173004 15.325743 45.999996 16C 51.431461 15.643709 56.731438 14.173194 61.57 11.68ZM 33.639999 44.98C 35.819252 36.263329 41.977398 29.082531 50.260002 25.6M 70 20.92C 72.399994 20.68 76.419998 20.559999 79 20.5C 79.407455 20.4904 79.799904 20.653917 80.079994 20.949999C 80.360367 21.226067 80.512642 21.60673 80.5 22L 80.5 68.5C 80.508255 68.900299 80.352875 69.286644 80.069763 69.569763C 79.786644 69.852875 79.400299 70.008255 79 70C 62.050003 70.270004 46 74.860001 46 80.5C 46 74.860001 29.92 70.270004 13 70C 12.604877 70.000076 12.226358 69.841095 11.9498 69.558891C 11.673244 69.276695 11.521936 68.895035 11.53 68.5L 11.53 22C 11.52515 21.602188 11.688585 21.22084 11.98 20.949999C 12.245788 20.66913 12.613371 20.506962 13 20.5C 18.020704 20.574871 23.031248 20.975716 28 21.700001M 46 47.5L 46 80.139999"></path></g></g></g><g id="g-root-ic_quil_m8lizd1jkr023-stroke" data-item-order="0" transform="translate(285.59100341796875, 158.7850341796875)"><g id="ic_quil_m8lizd1jkr023-stroke" fill="none" stroke-linecap="round" stroke-linejoin="round" stroke-miterlimit="4" stroke="#ffffff" stroke-width="2" stroke-opacity="1"><g><path d="M 22.540001 51.240002L 11 57L 16.76 45.459999L 50 12.2C 51.601543 10.5979 54.198677 10.597675 55.800499 12.199497C 57.402321 13.801319 57.402096 16.398455 55.799999 18ZM 52.919998 20.84L 47.16 15.08M 22.540001 51.240002L 16.76 45.459999M 57 57L 46 46M 30.139999 43.639999C 37.260002 48.939999 43.119999 48.880001 46 46C 48.279999 43.720001 48.959999 39.040001 46.619999 33.48M 38.16 24C 35.987999 21.994526 33.58432 20.255552 31 18.82L 31 23C 31 23 28.200001 22.299999 27.299999 16.82C 22.083218 14.319939 16.620476 12.369438 11 11C 11 11 14.12 25 21.18 34.66"></path></g></g></g><g id="g-root-ic_head_1q6z5951jk8rnt-stroke" data-item-order="0" transform="translate(194.80902099609375, 378.2869873046875)"><g id="ic_head_1q6z5951jk8rnt-stroke" fill="none" stroke-linecap="round" stroke-linejoin="round" stroke-miterlimit="4" stroke="#ffffff" stroke-width="2" stroke-opacity="1"><g><path d="M 10 10M 46.320999 36.7062L 56.0746 27.05994L 46.320999 17.19916M 55.824001 26.99814L 37.753799 26.99814C 35.766998 27.01034 33.8638 27.79936 32.451 29.196461C 31.038401 30.593599 30.228399 32.487999 30.194201 34.4744L 30.194201 46.690601C 30.1572 48.6688 29.34374 50.5532 27.929399 51.936798C 26.515079 53.320599 24.61338 54.092602 22.634781 54.086201L 19.32122 54.086201C 17.35976 54.086201 15.47864 53.306999 14.091681 51.919998C 12.70472 50.533199 11.925538 48.652 11.925538 46.690601L 11.925538 13.91374"></path></g></g></g><g id="g-root-ic_text_13z95jt1jkmqyv-stroke" data-item-order="0" transform="translate(506.8079833984375, 378.9400634765625)"><g id="ic_text_13z95jt1jkmqyv-stroke" fill="none" stroke-linecap="round" stroke-linejoin="round" stroke-miterlimit="4" stroke="#ffffff" stroke-width="2" stroke-opacity="1"><g><path d="M 56.999969 43.999977C 56.999969 45.104546 56.104538 45.999977 54.999969 45.999977L 32.999985 45.999977L 24.99999 53.999969L 24.99999 45.999977L 12.999998 45.999977C 11.89543 45.999977 10.999999 45.104546 10.999999 43.999977L 10.999999 15.999996C 10.999999 14.895428 11.89543 13.999997 12.999998 13.999997L 54.999969 13.999997C 56.104538 13.999997 56.999969 14.895428 56.999969 15.999996ZM 20.999992 33.999985L 46.999977 33.999985M 20.999992 23.99999L 46.999977 23.99999"></path></g></g></g><g id="g-root-tx_estructu_18k2d7d1jkec5h-stroke" data-item-order="0" transform="translate(14, 397.9998779296875)"></g><g id="g-root-tx_lenguaje_1d14ti11jkedjc-stroke" data-item-order="0" transform="translate(578, 385.9998779296875)"></g><g id="g-root-tx_primacad_qrjejd1jkeccj-stroke" data-item-order="0" transform="translate(140, 133.9998779296875)"></g><g id="g-root-ic_1_8x53rt1jka3nl-stroke" data-item-order="0" transform="translate(285.7300109863281, 469.2081298828125)"><g id="ic_1_8x53rt1jka3nl-stroke" fill="none" stroke-linecap="round" stroke-linejoin="round" stroke-miterlimit="4" stroke="#ffffff" stroke-width="2" stroke-opacity="1"><g><path d="M 16.504 31.5C 16.504 36.19442 20.30958 40 25.004 40C 29.69842 40 33.503998 36.19442 33.503998 31.5C 33.503998 26.80558 29.69842 23 25.004 23C 20.30958 23 16.504 26.80558 16.504 31.5M 11 57C 11.000001 49.268017 17.268013 43.000004 25 43.000004C 32.731987 43.000004 39 49.268017 39 57.000004ZM 37 29L 41 29L 41 33L 46 29L 48 29C 52.970562 29 57 24.970562 57 20C 57 15.029438 52.970562 11 48 11L 36 11C 31.415749 10.99912 27.563362 14.444134 27.054001 19M 48 19.5C 48.276142 19.5 48.5 19.723858 48.5 20L 48.5 20C 48.5 20.276142 48.276142 20.5 48 20.5L 48 20.5C 47.723858 20.5 47.5 20.276142 47.5 20L 47.5 20C 47.5 19.723858 47.723858 19.5 48 19.5M 47.995998 19.5L 47.995998 19.5M 42 19.5C 42.276142 19.5 42.5 19.723858 42.5 20L 42.5 20C 42.5 20.276142 42.276142 20.5 42 20.5L 42 20.5C 41.723858 20.5 41.5 20.276142 41.5 20L 41.5 20C 41.5 19.723858 41.723858 19.5 42 19.5M 41.996002 19.5L 41.996002 19.5M 36 19.5C 36.276142 19.5 36.5 19.723858 36.5 20L 36.5 20C 36.5 20.276142 36.276142 20.5 36 20.5L 36 20.5C 35.723858 20.5 35.5 20.276142 35.5 20L 35.5 20C 35.5 19.723858 35.723858 19.5 36 19.5M 35.996002 19.5L 35.996002 19.5"></path></g></g></g><g id="g-root-ic_view_1lselax1jkh4i3-stroke" data-item-order="0" transform="translate(414.1729736328125, 469.2081298828125)"><g id="ic_view_1lselax1jkh4i3-stroke" fill="none" stroke-linecap="round" stroke-linejoin="round" stroke-miterlimit="4" stroke="#ffffff" stroke-width="2" stroke-opacity="1"><g><path d="M 57 34C 57 34 46.703999 47 34 47C 21.296 47 11 34 11 34C 11 34 21.296 21 34 21C 46.703999 21 57 34 57 34ZM 26 34C 26 38.418278 29.581722 42 34 42C 38.418278 42 42 38.418278 42 34C 42 29.581722 38.418278 26 34 26C 29.581722 26 26 29.581722 26 34ZM 34 30C 36.209137 30 38 31.790861 38 34C 38 36.209137 36.209137 38 34 38C 31.790861 38 30 36.209137 30 34"></path></g></g></g><g id="g-root-tx_predomin_mdlbo91jkebda-stroke" data-item-order="0" transform="translate(116, 493.9998779296875)"></g><g id="g-root-tx_caracter_1qdua1l1jkee4j-stroke" data-item-order="0" transform="translate(176, 37.9998779296875)"></g></g></g><path id="wdj6wyx1jkk0e8" d="M65.283 12.757a.35.35 0 0 0 .584.157l5.203-5.141-6.183 3.523.396 1.461zm-2.216-11.7a.35.35 0 0 0-.522.305v3.111l3.276-1.868-2.754-1.548zm3.728 2.105l-4.25 2.421v2.445l6.391-3.644-2.141-1.222zm4.708 3.303a.35.35 0 0 0 0-.609l-1.592-.9-7.365 4.199v1.782a.35.35 0 0 0 .523.305l8.435-4.777z M44.542 2.513c0-.433.355-.783.792-.783s.792.35.792.783-.355.783-.792.783-.792-.35-.792-.783zm59.171 0c0-.433.355-.783.792-.783s.792.35.792.783-.355.783-.792.783-.792-.35-.792-.783zm-85.951 7.636h-1.27v-.487c-.276.201-.864.609-1.881.609-1.202 0-2.274-.794-2.137-2.078.118-1.106 1.153-1.584 1.848-1.727l2.17-.345c0-.539-.29-.956-1.064-1.006s-1.21.305-1.571 1.017l-1.124-.605c1.218-2.631 5.029-1.764 5.029.414v4.207zm-1.27-2.86c.006.396-.062 1.112-.819 1.59-.587.37-1.841.299-1.903-.395-.049-.555.461-.791.906-.898l1.816-.297zm72.662 2.86h-1.27v-.487c-.276.201-.864.609-1.881.609-1.202 0-2.274-.794-2.137-2.078.118-1.106 1.153-1.584 1.848-1.727l2.17-.345c0-.539-.29-.956-1.064-1.006s-1.21.305-1.571 1.017l-1.124-.605c1.218-2.631 5.029-1.764 5.029.414v4.207zm-1.27-2.86c.006.396-.062 1.112-.82 1.59-.587.37-1.841.299-1.903-.395-.049-.555.461-.791.906-.898l1.816-.297zM99.096 10.149H97.85v-8.45h1.246v4.895l2.68-2.559h1.738l-2.633 2.535 2.715 3.578h-1.556l-2.077-2.707-.867.844v1.863zm6.053-6.114h-1.255v6.113h1.255V4.035zm-59.2 0h-1.255v6.113h1.255V4.035zm5.584 6.113V1.697h1.255v2.695c.361-.346 1-.485 1.47-.485 1.452 0 2.477 1.082 2.457 2.448v3.792h-1.27v-3.68c0-.408-.214-1.339-1.315-1.339-.968 0-1.342.756-1.342 1.339v3.681h-1.255zm-4.76-4.894V4.039h.621a.45.45 0 0 0 .45-.45v-.855h1.251v1.305h1.309v1.215h-1.309v3.109c0 .293.105.664.648.664.365 0 .531-.035.736-.07v1.137s-.361.113-.857.113c-1.398 0-1.777-1.051-1.777-1.788V5.254h-1.071zM36.528 4.039h-1.394l2.191 6.106h1.125l1.234-3.918 1.238 3.918h1.129l2.188-6.106h-1.383l-1.359 3.93-1.256-3.93h-1.124l-1.242 3.957-1.348-3.957zM26.212 7.141c-.02 1.566 1.187 3.129 3.223 3.129 1.566 0 2.383-.918 2.734-1.719L31.172 8c-.315.399-.801 1.094-1.738 1.094-1.145 0-1.825-.781-1.891-1.52h4.625c.074-.284.148-.995-.03-1.559-.336-1.064-1.221-2.102-2.839-2.102s-3.088 1.152-3.088 3.227zm1.363-.75h3.348c-.055-.43-.566-1.301-1.623-1.301a1.79 1.79 0 0 0-1.725 1.301zm-8.758.75c.038 1.758 1.277 3.133 3.145 3.133 1.074 0 1.723-.477 1.961-.672v.547h1.242V1.703h-1.258v2.888c-.414-.36-1.062-.68-1.93-.68-1.91 0-3.198 1.473-3.16 3.23zm1.309-.08c0 1.119.723 1.978 1.836 1.978a1.88 1.88 0 0 0 1.94-1.904c0-1.371-1.011-1.99-1.972-1.99s-1.805.798-1.805 1.916zm76.683-.028C96.771 5.275 95.532 3.9 93.664 3.9c-1.074 0-1.723.477-1.961.672v-.547h-1.242v8.22h1.258V9.583c.414.36 1.063.68 1.93.68 1.91 0 3.198-1.473 3.16-3.23zm-1.309.08c0-1.119-.723-1.978-1.836-1.978a1.88 1.88 0 0 0-1.94 1.904c0 1.371 1.011 1.99 1.972 1.99S95.5 8.231 95.5 7.113zM106.441 10.173V4.036h1.254v.382c.361-.346 1-.485 1.47-.485 1.452 0 2.477 1.082 2.457 2.448v3.792h-1.27V6.492c0-.408-.214-1.339-1.315-1.339-.969 0-1.342.756-1.342 1.339v3.681h-1.254zm-30.383-.021V1.824h1.084l4.215 5.777V1.824h1.32v8.328h-1.094l-4.207-5.796v5.796h-1.319zM5.24 10.149H4V2.377h1.014l2.664 3.597 2.654-3.592h1.03v7.766h-1.256V4.762L7.678 8.068 5.24 4.742v5.407z" transform="translate(634.9998779296875, 581.0001220703125)" fill="#80808088" stroke="none"></path></svg>