<?xml version="1.0" encoding="utf-8" standalone="yes"?>
<!DOCTYPE svg PUBLIC "-//W3C//DTD SVG 1.1//EN" "http://www.w3.org/Graphics/SVG/1.1/DTD/svg11.dtd">
<svg style="fill:none;stroke:none;fill-rule:evenodd;clip-rule:evenodd;stroke-linecap:round;stroke-linejoin:round;stroke-miterlimit:1.5;" version="1.1" xmlns="http://www.w3.org/2000/svg" xmlns:xlink="http://www.w3.org/1999/xlink" width="372" height="552" viewBox="0 0 372 552"><style class="text-font-style fontImports" data-font-family="Roboto">@import url(https://fonts.googleapis.com/css2?family=Roboto:wght@400;700&amp;amp;display=block);</style><g id="items" style="isolation: isolate"><g id="blend" style="mix-blend-mode: normal"><g id="g-root-cp_0_g-0_8z0mbh1jup79r-fill" data-item-order="-143845" transform="translate(23, 284)"></g><g id="g-root-sy_0_Vector_4j74711jup820-fill" data-item-order="-143841" transform="translate(265, 284)"></g><g id="g-root-cp_1_g-1_4035p1jup5oh-fill" data-item-order="-143838" transform="translate(52, 204)"><g id="cp_1_g-1_4035p1jup5oh-fill-merged" stroke="none" fill="url(#gradient-76aaff-163240667)" fill-opacity="1"><g><path d="M10 41C10 23.879 23.879 10 41 10C58.121 10 72 23.879 72 41C72 58.121 58.121 72 41 72C23.879 72 10 58.121 10 41"></path></g></g></g><g id="g-root-cp_1_g-1_1_1ltnmrh1jup72a-fill" data-item-order="-143833" transform="translate(80, 266)"></g><g id="g-root-cp_2_g-2_1cy0mil1jup7uz-fill" data-item-order="-143828" transform="translate(111, 303)"><g id="cp_2_g-2_1cy0mil1jup7uz-fill-merged" stroke="none" fill="url(#gradient-fcaa5f-123734360)" fill-opacity="1"><g><path d="M72 41C72 58.121 58.121 72 41 72C23.879 72 10 58.121 10 41C10 23.879 23.879 10 41 10C58.121 10 72 23.879 72 41"></path></g></g></g><g id="g-root-cp_2_g-2_1_zn6l8d1jup6a4-fill" data-item-order="-143823" transform="translate(140, 281)"></g><g id="g-root-cp_3_g-3_v7d33x1jup72d-fill" data-item-order="-143818" transform="translate(172, 204)"><g id="cp_3_g-3_v7d33x1jup72d-fill-merged" stroke="none" fill="url(#gradient-747474-395121396)" fill-opacity="1"><g><path d="M10 41C10 23.879 23.879 10 41 10C58.121 10 72 23.879 72 41C72 58.121 58.121 72 41 72C23.879 72 10 58.121 10 41"></path></g></g></g><g id="g-root-cp_3_g-3_1_mbq2v11jup7v2-fill" data-item-order="-143813" transform="translate(200, 266)"></g><g id="g-root-cp_4_g-4_hwj1tp1jup5hj-fill" data-item-order="-143808" transform="translate(232, 302)"><defs><linearGradient id="gradient-76aaff-163240667" x2="0" y2="1"><stop offset="0" stop-color="#9cc2ff"></stop><stop offset="1" stop-color="#4f92ff"></stop></linearGradient><linearGradient id="gradient-fcaa5f-123734360" x2="0" y2="1"><stop offset="0" stop-color="#ffbf84"></stop><stop offset="1" stop-color="#f99539"></stop></linearGradient><linearGradient id="gradient-747474-395121396" x2="0" y2="1"><stop offset="0" stop-color="#828282"></stop><stop offset="1" stop-color="#666666"></stop></linearGradient><linearGradient id="gradient-fe8884-413551779" x2="0" y2="1"><stop offset="0" stop-color="#ffa6a3"></stop><stop offset="1" stop-color="#fd6a65"></stop></linearGradient></defs><g id="cp_4_g-4_hwj1tp1jup5hj-fill-merged" stroke="none" fill="url(#gradient-fe8884-413551779)" fill-opacity="1"><g><path d="M72 41C72 58.121 58.121 72 41 72C23.879 72 10 58.121 10 41C10 23.879 23.879 10 41 10C58.121 10 72 23.879 72 41"></path></g></g></g><g id="g-root-cp_4_g-4_1_4l2jgd1jup72g-fill" data-item-order="-143803" transform="translate(259, 281)"></g><g id="g-root-tx_tendenci_1qbck591jup5ah-fill" data-item-order="0" transform="translate(14, 38.000030517578125)"><g id="tx_tendenci_1qbck591jup5ah-fill-merged" stroke="none" fill="#fd6a65" fill-opacity="1"><g><text style="font: bold 20px &quot;Roboto&quot;, sans-serif; white-space: pre;" transform="translate(172, 22)" font-weight="bold" font-size="20px" font-family="'Roboto', sans-serif"><tspan x="-158.5" y="12" dominant-baseline="ideographic">Tendencias narrativas (1975-1990)</tspan></text></g></g></g><g id="g-root-tx_realismo_v98id91jup62q-fill" data-item-order="0" transform="translate(35, 86)"><g id="tx_realismo_v98id91jup62q-fill-merged" stroke="none" fill="#4e88e7" fill-opacity="1"><g><text style="font: bold 20px &quot;Roboto&quot;, sans-serif; white-space: pre;" transform="translate(58, 34)" font-weight="bold" font-size="20px" font-family="'Roboto', sans-serif"><tspan x="-43.95" y="0" dominant-baseline="ideographic">Realismo </tspan><tspan x="-43.82" y="24" dominant-baseline="ideographic">renovado</tspan></text></g></g></g><g id="g-root-tx_novelapo_1qclibh1jup7gk-fill" data-item-order="0" transform="translate(167, 86)"><g id="tx_novelapo_1qclibh1jup7gk-fill-merged" stroke="none" fill="#000000" fill-opacity="1"><g><text style="font: bold 20px &quot;Roboto&quot;, sans-serif; white-space: pre;" transform="translate(46, 34)" font-weight="bold" font-size="20px" font-family="'Roboto', sans-serif"><tspan x="-33.52" y="0" dominant-baseline="ideographic">Novela </tspan><tspan x="-28.07" y="24" dominant-baseline="ideographic">negra</tspan></text></g></g></g><g id="g-root-tx_regresoa_92rgu51jup5aj-fill" data-item-order="0" transform="translate(35, 140)"><g id="tx_regresoa_92rgu51jup5aj-fill-merged" stroke="none" fill="#484848" fill-opacity="1"><g><text style="font: 10px &quot;Roboto&quot;, sans-serif; white-space: pre;" transform="translate(58, 28)" font-size="10px" font-family="'Roboto', sans-serif"><tspan x="-27.73" y="-5.5" dominant-baseline="ideographic">Regreso a la </tspan><tspan x="-45.68" y="6.5" dominant-baseline="ideographic">narrativa accesible y </tspan><tspan x="-32.67" y="18.5" dominant-baseline="ideographic">de alta calidad</tspan></text></g></g></g><g id="g-root-tx_augedelg_zqaynx1jup7gl-fill" data-item-order="0" transform="translate(155, 140)"><g id="tx_augedelg_zqaynx1jup7gl-fill-merged" stroke="none" fill="#484848" fill-opacity="1"><g><text style="font: 10px &quot;Roboto&quot;, sans-serif; white-space: pre;" transform="translate(58, 28)" font-size="10px" font-family="'Roboto', sans-serif"><tspan x="-37.23" y="-5.5" dominant-baseline="ideographic">Auge del género </tspan><tspan x="-43.63" y="6.5" dominant-baseline="ideographic">negro con Vázquez </tspan><tspan x="-25.07" y="18.5" dominant-baseline="ideographic">Montalbán</tspan></text></g></g></g><g id="g-root-ic_user_zs6dx91jup6gy-fill" data-item-order="0" transform="translate(65, 218)"></g><g id="g-root-ic_2_qnsqgt1juterz-fill" data-item-order="0" transform="translate(185, 218)"></g><g id="g-root-tx_narrativ_1d30f7h1jup81t-fill" data-item-order="0" transform="translate(215, 446)"><g id="tx_narrativ_1d30f7h1jup81t-fill-merged" stroke="none" fill="#484848" fill-opacity="1"><g><text style="font: 10px &quot;Roboto&quot;, sans-serif; white-space: pre;" transform="translate(58, 28)" font-size="10px" font-family="'Roboto', sans-serif"><tspan x="-21.34" y="-5.5" dominant-baseline="ideographic">Narrativa </tspan><tspan x="-44.91" y="6.5" dominant-baseline="ideographic">testimonial sobre la </tspan><tspan x="-26.49" y="18.5" dominant-baseline="ideographic">Guerra Civil</tspan></text></g></g></g><g id="g-root-ic_miro_940f0d1juqkuk-fill" data-item-order="0" transform="translate(125, 314)"></g><g id="g-root-ic_book_18n6x311jutczt-fill" data-item-order="0" transform="translate(245, 314)"></g><g id="g-root-tx_metaficc_qvafi51jup53i-fill" data-item-order="0" transform="translate(83, 392)"><g id="tx_metaficc_qvafi51jup53i-fill-merged" stroke="none" fill="#1eabda" fill-opacity="1"><g><text style="font: bold 20px &quot;Roboto&quot;, sans-serif; white-space: pre;" transform="translate(70, 22)" font-weight="bold" font-size="20px" font-family="'Roboto', sans-serif"><tspan x="-53.31" y="12" dominant-baseline="ideographic">Metaficción</tspan></text></g></g></g><g id="g-root-tx_memoriah_1uuafp91jup5oo-fill" data-item-order="0" transform="translate(215, 392)"><g id="tx_memoriah_1uuafp91jup5oo-fill-merged" stroke="none" fill="#e55753" fill-opacity="1"><g><text style="font: bold 20px &quot;Roboto&quot;, sans-serif; white-space: pre;" transform="translate(58, 34)" font-weight="bold" font-size="20px" font-family="'Roboto', sans-serif"><tspan x="-42.6" y="0" dominant-baseline="ideographic">Memoria </tspan><tspan x="-41.63" y="24" dominant-baseline="ideographic">histórica</tspan></text></g></g></g><g id="g-root-tx_reflexin_940f0d1jup7gn-fill" data-item-order="0" transform="translate(95, 422)"><g id="tx_reflexin_940f0d1jup7gn-fill-merged" stroke="none" fill="#484848" fill-opacity="1"><g><text style="font: 10px &quot;Roboto&quot;, sans-serif; white-space: pre;" transform="translate(58, 28)" font-size="10px" font-family="'Roboto', sans-serif"><tspan x="-40.73" y="-5.5" dominant-baseline="ideographic">Reflexión sobre la </tspan><tspan x="-29.48" y="6.5" dominant-baseline="ideographic">escritura y la </tspan><tspan x="-20.67" y="18.5" dominant-baseline="ideographic">narrativa</tspan></text></g></g></g><g id="g-root-cp_0_g-0_8z0mbh1jup79r-stroke" data-item-order="-143845" transform="translate(23, 284)"><g id="cp_0_g-0_8z0mbh1jup79r-stroke" fill="none" stroke-linecap="round" stroke-linejoin="round" stroke-miterlimit="4" stroke="#4f92ff" stroke-width="2" stroke-opacity="1"><g><path d="M 67 10L 10 10M 127.0307 10L 72.9706 10M 187 10L 133 10M 247 10L 192.9701 10"></path></g></g></g><g id="g-root-sy_0_Vector_4j74711jup820-stroke" data-item-order="-143841" transform="translate(265, 284)"><g id="sy_0_Vector_4j74711jup820-stroke" fill="none" stroke-linecap="round" stroke-linejoin="round" stroke-miterlimit="4" stroke="#4f92ff" stroke-width="2" stroke-opacity="1"><g><path d="M 65 10L 10 10"></path><path d="M 59 16.5L 65.5 10L 59 3.5" stroke-dasharray="none"></path></g></g></g><g id="g-root-cp_1_g-1_4035p1jup5oh-stroke" data-item-order="-143838" transform="translate(52, 204)"><g id="cp_1_g-1_4035p1jup5oh-stroke" fill="none" stroke-linecap="round" stroke-linejoin="round" stroke-miterlimit="4" stroke="#4f92ff" stroke-width="2" stroke-opacity="1"><g><path d="M 10 41C 10 23.8792 23.8792 10 41 10C 58.1208 10 72 23.8792 72 41C 72 58.1208 58.1208 72 41 72C 23.8792 72 10 58.1208 10 41Z"></path></g></g></g><g id="g-root-cp_1_g-1_1_1ltnmrh1jup72a-stroke" data-item-order="-143833" transform="translate(80, 266)"><g id="cp_1_g-1_1_1ltnmrh1jup72a-stroke" fill="none" stroke-linecap="round" stroke-linejoin="round" stroke-miterlimit="4" stroke="#4f92ff" stroke-width="2" stroke-opacity="1"><g><path d="M 13 10L 13 25M 16 28C 16 29.6569 14.6568 31 13 31C 11.3431 31 10 29.6569 10 28C 10 26.3431 11.3431 25 13 25C 14.6568 25 16 26.3431 16 28Z"></path></g></g></g><g id="g-root-cp_2_g-2_1cy0mil1jup7uz-stroke" data-item-order="-143828" transform="translate(111, 303)"><g id="cp_2_g-2_1cy0mil1jup7uz-stroke" fill="none" stroke-linecap="round" stroke-linejoin="round" stroke-miterlimit="4" stroke="#4f92ff" stroke-width="2" stroke-opacity="1"><g><path d="M 72 41C 72 58.1208 58.1208 72 41 72C 23.8792 72 10 58.1208 10 41C 10 23.8792 23.8792 10 41 10C 58.1208 10 72 23.8792 72 41Z"></path></g></g></g><g id="g-root-cp_2_g-2_1_zn6l8d1jup6a4-stroke" data-item-order="-143823" transform="translate(140, 281)"><g id="cp_2_g-2_1_zn6l8d1jup6a4-stroke" fill="none" stroke-linecap="round" stroke-linejoin="round" stroke-miterlimit="4" stroke="#4f92ff" stroke-width="2" stroke-opacity="1"><g><path d="M 13 31L 13 16M 16 13C 16 14.6569 14.6568 16 13 16C 11.3431 16 10 14.6569 10 13C 10 11.3431 11.3431 10 13 10C 14.6568 10 16 11.3431 16 13Z"></path></g></g></g><g id="g-root-cp_3_g-3_v7d33x1jup72d-stroke" data-item-order="-143818" transform="translate(172, 204)"><g id="cp_3_g-3_v7d33x1jup72d-stroke" fill="none" stroke-linecap="round" stroke-linejoin="round" stroke-miterlimit="4" stroke="#4f92ff" stroke-width="2" stroke-opacity="1"><g><path d="M 10 41C 10 23.8792 23.8792 10 41 10C 58.1208 10 72 23.8792 72 41C 72 58.1208 58.1208 72 41 72C 23.8792 72 10 58.1208 10 41Z"></path></g></g></g><g id="g-root-cp_3_g-3_1_mbq2v11jup7v2-stroke" data-item-order="-143813" transform="translate(200, 266)"><g id="cp_3_g-3_1_mbq2v11jup7v2-stroke" fill="none" stroke-linecap="round" stroke-linejoin="round" stroke-miterlimit="4" stroke="#4f92ff" stroke-width="2" stroke-opacity="1"><g><path d="M 13 10L 13 25M 16 28C 16 29.6569 14.6568 31 13 31C 11.3431 31 10 29.6569 10 28C 10 26.3431 11.3431 25 13 25C 14.6568 25 16 26.3431 16 28Z"></path></g></g></g><g id="g-root-cp_4_g-4_hwj1tp1jup5hj-stroke" data-item-order="-143808" transform="translate(232, 302)"><g id="cp_4_g-4_hwj1tp1jup5hj-stroke" fill="none" stroke-linecap="round" stroke-linejoin="round" stroke-miterlimit="4" stroke="#4f92ff" stroke-width="2" stroke-opacity="1"><g><path d="M 72 41C 72 58.1208 58.1208 72 41 72C 23.8792 72 10 58.1208 10 41C 10 23.8792 23.8792 10 41 10C 58.1208 10 72 23.8792 72 41Z"></path></g></g></g><g id="g-root-cp_4_g-4_1_4l2jgd1jup72g-stroke" data-item-order="-143803" transform="translate(259, 281)"><g id="cp_4_g-4_1_4l2jgd1jup72g-stroke" fill="none" stroke-linecap="round" stroke-linejoin="round" stroke-miterlimit="4" stroke="#4f92ff" stroke-width="2" stroke-opacity="1"><g><path d="M 13 31L 13 16M 16 13C 16 14.6569 14.6568 16 13 16C 11.3431 16 10 14.6569 10 13C 10 11.3431 11.3431 10 13 10C 14.6568 10 16 11.3431 16 13Z"></path></g></g></g><g id="g-root-tx_tendenci_1qbck591jup5ah-stroke" data-item-order="0" transform="translate(14, 38.000030517578125)"></g><g id="g-root-tx_realismo_v98id91jup62q-stroke" data-item-order="0" transform="translate(35, 86)"></g><g id="g-root-tx_novelapo_1qclibh1jup7gk-stroke" data-item-order="0" transform="translate(167, 86)"></g><g id="g-root-tx_regresoa_92rgu51jup5aj-stroke" data-item-order="0" transform="translate(35, 140)"></g><g id="g-root-tx_augedelg_zqaynx1jup7gl-stroke" data-item-order="0" transform="translate(155, 140)"></g><g id="g-root-ic_user_zs6dx91jup6gy-stroke" data-item-order="0" transform="translate(65, 218)"><g id="ic_user_zs6dx91jup6gy-stroke" fill="none" stroke-linecap="round" stroke-linejoin="round" stroke-miterlimit="4" stroke="#000000" stroke-width="2" stroke-opacity="1"><g><path d="M 39.516548 18.353291C 41.3806 18.353291 42.891548 16.842251 42.891548 14.978291C 42.891548 13.114315 41.3806 11.603275 39.516548 11.603275C 37.652649 11.603275 36.141548 13.114315 36.141548 14.978291C 36.141548 16.842251 37.652649 18.353291 39.516548 18.353291ZM 39.441551 44.875C 40.641548 44.875 41.691551 43.824997 41.691551 42.625L 41.691551 22.82497C 41.691551 21.924969 41.24155 21.174984 40.49155 20.874985C 39.74155 20.424984 38.841549 20.574986 38.24155 21.024984L 36.591549 22.07497C 35.24155 22.97497 32.841549 22.82497 30.14155 22.82497C 28.941549 22.82497 27.89155 23.874969 27.89155 25.075001C 27.89155 26.275002 28.941549 27.325001 30.14155 27.325001L 34.04155 27.325001C 35.091549 27.325001 36.141548 27.174999 37.191551 26.724998L 37.191551 42.625C 37.191551 43.824997 38.24155 44.875 39.441551 44.875ZM 20.758181 22.825075L 13.258181 22.825075M 20.758181 18.325075L 13.258181 18.325075M 20.758181 13.825075L 13.258181 13.825075M 30.451 27.325001L 13.258181 27.325001M 13.25488 27.325001L 13.25488 44.875L 27.208302 44.875M 10 10M 23.758181 27.325001L 23.758181 44.875M 10 10M 30.141251 22.824894L 31.341249 18.324896"></path></g></g></g><g id="g-root-ic_2_qnsqgt1juterz-stroke" data-item-order="0" transform="translate(185, 218)"><g id="ic_2_qnsqgt1juterz-stroke" fill="none" stroke-linecap="round" stroke-linejoin="round" stroke-miterlimit="4" stroke="#484848" stroke-width="2" stroke-opacity="1"><g><path d="M 18.25 28.9615C 17.858288 30.679054 16.865576 32.200043 15.451 33.25C 15.230169 33.376072 15.088258 33.60545 15.074018 33.859333C 15.059779 34.11322 15.175152 34.357025 15.3805 34.507C 16.100828 35.039177 16.908419 35.4417 17.767 35.696503M 37.75 28.967501C 38.143131 30.682436 39.135063 32.200916 40.547501 33.25C 40.767342 33.375149 40.909283 33.602692 40.925003 33.855171C 40.940727 34.107651 40.828114 34.351044 40.6255 34.502499C 39.892509 35.042519 39.069862 35.448761 38.195503 35.702499M 10 10M 17.2075 39.990997L 14.482 40.890999C 12.639085 41.571651 11.245417 43.110401 10.75 45.011501M 10 10M 38.800003 39.990997L 41.525501 40.890999C 43.365532 41.573669 44.756096 43.11208 45.250004 45.011501M 18.956501 21.9175L 21.85 12.7735C 22.0732 12.145928 22.56299 11.649505 23.187504 11.417882C 23.812016 11.186259 24.507057 11.243246 25.085501 11.5735L 26.8855 12.6025C 27.577065 12.997533 28.425936 12.997533 29.1175 12.6025L 30.9175 11.5735C 31.495945 11.243246 32.190987 11.186259 32.815498 11.417882C 33.44001 11.649505 33.929802 12.145928 34.153 12.7735L 37.043499 21.9235M 13 20.8645C 22.879438 23.060516 33.12056 23.060516 43 20.8645M 19.885 18.980499C 25.271835 19.688503 30.728165 19.688503 36.114998 18.980499M 20.2885 22.080999C 19.24304 23.973362 19.751129 26.346718 21.479691 27.645214C 23.208252 28.943712 25.629206 28.77066 27.1555 27.2395C 27.506489 26.884657 27.792343 26.470856 28 26.017C 28.66979 27.45385 30.07048 28.410498 31.652546 28.511625C 33.234612 28.612755 34.745705 27.84223 35.592987 26.502354C 36.440266 25.162476 36.488594 23.466961 35.719002 22.080999M 20.601999 30.214001C 21.264999 34.18 25.9195 36.761497 28 36.761497C 30.0805 36.761497 34.735001 34.18 35.397999 30.214001M 10 10M 26.5 32.261497L 29.5 32.261497M 10 10M 28 45.230499L 27.031 44.261497C 23.722 40.952499 21.229 38.871998 19.75 34.431999L 14.8645 37.550499C 14.637482 37.696049 14.506082 37.952274 14.520353 38.221565C 14.534624 38.49086 14.692369 38.731758 14.9335 38.852501L 18.82 40.802498C 19.034988 40.910683 19.184999 41.115463 19.223314 41.353065C 19.261627 41.590668 19.183588 41.832226 19.0135 42.002499L 18.031 42.9865C 17.738214 43.279377 17.738214 43.754128 18.031 44.047001L 19 45.011497M 10 10M 28 45.230499L 28.969 44.261497C 32.278 40.952499 34.771 38.871998 36.25 34.431999L 41.135498 37.550499C 41.362518 37.696049 41.493919 37.952274 41.479645 38.221565C 41.465378 38.49086 41.307632 38.731758 41.066502 38.852501L 37.18 40.802498C 36.965012 40.910683 36.815002 41.115463 36.776688 41.353065C 36.738373 41.590668 36.816414 41.832226 36.9865 42.002499L 37.969002 42.9865C 38.261787 43.279377 38.261787 43.754128 37.969002 44.047001L 37 45.011497M 10 10M 25.663 42.906998L 27.356501 40.084C 27.491955 39.857735 27.73629 39.719238 28 39.719238C 28.26371 39.719238 28.508045 39.857735 28.643499 40.084L 30.337 42.906998"></path></g></g></g><g id="g-root-tx_narrativ_1d30f7h1jup81t-stroke" data-item-order="0" transform="translate(215, 446)"></g><g id="g-root-ic_miro_940f0d1juqkuk-stroke" data-item-order="0" transform="translate(125, 314)"><g id="ic_miro_940f0d1juqkuk-stroke" fill="none" stroke-linecap="round" stroke-linejoin="round" stroke-miterlimit="4" stroke="#ffe60a" stroke-width="2" stroke-opacity="1"><g><path d="M 13 10.75L 43 10.75C 43 10.75 45.25 10.75 45.25 13L 45.25 43C 45.25 43 45.25 45.25 43 45.25L 13 45.25C 13 45.25 10.75 45.25 10.75 43L 10.75 13C 10.75 13 10.75 10.75 13 10.75M 18.692215 40.4566L 16.256334 40.4566L 19.495871 23.914915L 19.53706 23.704615L 19.46092 23.504305L 16.432631 15.537115L 18.901255 15.537115L 25.71295 22.20595L 18.692215 40.4566ZM 26.332451 40.45945L 23.903681 40.45945L 27.326649 22.148335L 27.372849 21.901541L 27.261099 21.676689L 24.210819 15.54004L 26.6122 15.54004L 33.360851 20.609156L 26.332451 40.45945ZM 34.002701 40.4566L 31.5784 40.4566L 34.99435 20.4613L 35.043251 20.174379L 34.885899 19.929504L 32.063049 15.537115L 34.3522 15.537115L 40.752399 19.197519L 34.002701 40.4566Z"></path></g></g></g><g id="g-root-ic_book_18n6x311jutczt-stroke" data-item-order="0" transform="translate(245, 314)"><g id="ic_book_18n6x311jutczt-stroke" fill="none" stroke-linecap="round" stroke-linejoin="round" stroke-miterlimit="4" stroke="#484848" stroke-width="2" stroke-opacity="1"><g><path d="M 30.029499 31.285C 31.978296 31.481812 33.9403 31.0716 35.647003 30.1105C 35.839676 30.002125 35.97472 29.814264 36.016071 29.597105C 36.057423 29.379944 36.000862 29.155602 35.8615 28.984001C 35.212002 28.222 34.762001 27.216999 34.5625 24.2845C 34.186001 18.710501 30.425499 16.75 27.195999 16.75C 23.966499 16.75 20.2075 18.710501 19.8295 24.2845C 19.6315 27.216999 19.18 28.222 18.5305 28.984001C 18.391138 29.155602 18.334578 29.379944 18.375927 29.597105C 18.417278 29.814264 18.552326 30.002125 18.744999 30.1105C 20.451979 31.070858 22.413746 31.481022 24.362499 31.285M 35.210499 35.073997C 33.931 34.546001 32.4175 34.004501 30.771999 33.3955C 30.324064 33.232895 30.024792 32.808525 30.021999 32.332001L 30.021999 30.262001C 30.021616 29.942734 30.156187 29.63818 30.3925 29.4235C 31.246717 28.644388 31.729826 27.539129 31.7215 26.382999L 31.7215 24.733C 31.722099 24.080408 31.29575 23.504229 30.671501 23.313999C 29.553726 22.96703 28.534971 22.358143 27.700001 21.538C 27.414299 21.267708 26.967201 21.267708 26.681499 21.538C 25.8452 22.356922 24.825413 22.964268 23.707001 23.3095C 23.08275 23.499729 22.656401 24.075909 22.657 24.7285L 22.657 26.3785C 22.649054 27.534552 23.132097 28.639664 23.986 29.419001C 24.222313 29.633678 24.356884 29.938236 24.356501 30.2575L 24.356501 32.327499C 24.354868 32.802113 24.058979 33.225918 23.613998 33.390999C 21.964001 34 20.456501 34.5415 19.175501 35.0695M 40.75 43.75C 40.75 44.578426 40.078426 45.25 39.25 45.25L 15.25 45.25L 15.25 10.75L 39.25 10.75C 40.078426 10.75 40.75 11.421573 40.75 12.25ZM 15.25 10.75L 12.25 10.75C 11.421573 10.75 10.75 11.421573 10.75 12.25L 10.75 43.75C 10.75 44.578426 11.421573 45.25 12.25 45.25L 15.25 45.25M 40.75 13.75L 42.25 13.75C 43.904804 13.754942 45.24506 15.095198 45.25 16.75L 45.25 19.75L 40.75 19.75M 10 10M 40.75 19.75L 45.25 19.75L 45.25 27.25L 40.75 27.25M 10 10M 40.75 27.25L 45.25 27.25L 45.25 34.75L 40.75 34.75M 40.75 34.75L 45.25 34.75L 45.25 37.75C 45.24506 39.404804 43.904804 40.74506 42.25 40.75L 40.75 40.75"></path></g></g></g><g id="g-root-tx_metaficc_qvafi51jup53i-stroke" data-item-order="0" transform="translate(83, 392)"></g><g id="g-root-tx_memoriah_1uuafp91jup5oo-stroke" data-item-order="0" transform="translate(215, 392)"></g><g id="g-root-tx_reflexin_940f0d1jup7gn-stroke" data-item-order="0" transform="translate(95, 422)"></g></g></g><path id="w1ur6hwe1ja94oy" d="M65.283 12.757a.35.35 0 0 0 .584.157l5.203-5.141-6.183 3.523.396 1.461zm-2.216-11.7a.35.35 0 0 0-.522.305v3.111l3.276-1.868-2.754-1.548zm3.728 2.105l-4.25 2.421v2.445l6.391-3.644-2.141-1.222zm4.708 3.303a.35.35 0 0 0 0-.609l-1.592-.9-7.365 4.199v1.782a.35.35 0 0 0 .523.305l8.435-4.777z M44.542 2.513c0-.433.355-.783.792-.783s.792.35.792.783-.355.783-.792.783-.792-.35-.792-.783zm59.171 0c0-.433.355-.783.792-.783s.792.35.792.783-.355.783-.792.783-.792-.35-.792-.783zm-85.951 7.636h-1.27v-.487c-.276.201-.864.609-1.881.609-1.202 0-2.274-.794-2.137-2.078.118-1.106 1.153-1.584 1.848-1.727l2.17-.345c0-.539-.29-.956-1.064-1.006s-1.21.305-1.571 1.017l-1.124-.605c1.218-2.631 5.029-1.764 5.029.414v4.207zm-1.27-2.86c.006.396-.062 1.112-.819 1.59-.587.37-1.841.299-1.903-.395-.049-.555.461-.791.906-.898l1.816-.297zm72.662 2.86h-1.27v-.487c-.276.201-.864.609-1.881.609-1.202 0-2.274-.794-2.137-2.078.118-1.106 1.153-1.584 1.848-1.727l2.17-.345c0-.539-.29-.956-1.064-1.006s-1.21.305-1.571 1.017l-1.124-.605c1.218-2.631 5.029-1.764 5.029.414v4.207zm-1.27-2.86c.006.396-.062 1.112-.82 1.59-.587.37-1.841.299-1.903-.395-.049-.555.461-.791.906-.898l1.816-.297zM99.096 10.149H97.85v-8.45h1.246v4.895l2.68-2.559h1.738l-2.633 2.535 2.715 3.578h-1.556l-2.077-2.707-.867.844v1.863zm6.053-6.114h-1.255v6.113h1.255V4.035zm-59.2 0h-1.255v6.113h1.255V4.035zm5.584 6.113V1.697h1.255v2.695c.361-.346 1-.485 1.47-.485 1.452 0 2.477 1.082 2.457 2.448v3.792h-1.27v-3.68c0-.408-.214-1.339-1.315-1.339-.968 0-1.342.756-1.342 1.339v3.681h-1.255zm-4.76-4.894V4.039h.621a.45.45 0 0 0 .45-.45v-.855h1.251v1.305h1.309v1.215h-1.309v3.109c0 .293.105.664.648.664.365 0 .531-.035.736-.07v1.137s-.361.113-.857.113c-1.398 0-1.777-1.051-1.777-1.788V5.254h-1.071zM36.528 4.039h-1.394l2.191 6.106h1.125l1.234-3.918 1.238 3.918h1.129l2.188-6.106h-1.383l-1.359 3.93-1.256-3.93h-1.124l-1.242 3.957-1.348-3.957zM26.212 7.141c-.02 1.566 1.187 3.129 3.223 3.129 1.566 0 2.383-.918 2.734-1.719L31.172 8c-.315.399-.801 1.094-1.738 1.094-1.145 0-1.825-.781-1.891-1.52h4.625c.074-.284.148-.995-.03-1.559-.336-1.064-1.221-2.102-2.839-2.102s-3.088 1.152-3.088 3.227zm1.363-.75h3.348c-.055-.43-.566-1.301-1.623-1.301a1.79 1.79 0 0 0-1.725 1.301zm-8.758.75c.038 1.758 1.277 3.133 3.145 3.133 1.074 0 1.723-.477 1.961-.672v.547h1.242V1.703h-1.258v2.888c-.414-.36-1.062-.68-1.93-.68-1.91 0-3.198 1.473-3.16 3.23zm1.309-.08c0 1.119.723 1.978 1.836 1.978a1.88 1.88 0 0 0 1.94-1.904c0-1.371-1.011-1.99-1.972-1.99s-1.805.798-1.805 1.916zm76.683-.028C96.771 5.275 95.532 3.9 93.664 3.9c-1.074 0-1.723.477-1.961.672v-.547h-1.242v8.22h1.258V9.583c.414.36 1.063.68 1.93.68 1.91 0 3.198-1.473 3.16-3.23zm-1.309.08c0-1.119-.723-1.978-1.836-1.978a1.88 1.88 0 0 0-1.94 1.904c0 1.371 1.011 1.99 1.972 1.99S95.5 8.231 95.5 7.113zM106.441 10.173V4.036h1.254v.382c.361-.346 1-.485 1.47-.485 1.452 0 2.477 1.082 2.457 2.448v3.792h-1.27V6.492c0-.408-.214-1.339-1.315-1.339-.969 0-1.342.756-1.342 1.339v3.681h-1.254zm-30.383-.021V1.824h1.084l4.215 5.777V1.824h1.32v8.328h-1.094l-4.207-5.796v5.796h-1.319zM5.24 10.149H4V2.377h1.014l2.664 3.597 2.654-3.592h1.03v7.766h-1.256V4.762L7.678 8.068 5.24 4.742v5.407z" transform="translate(20, 518)" fill="#80808088" stroke="none"></path></svg>